<svg width="32" height="33" viewBox="0 0 32 33" fill="none" xmlns="http://www.w3.org/2000/svg">
<rect y="0.588379" width="32" height="32" rx="16" fill="#5271FF"/>
<path d="M7.152 23.5884V11.6684H15.072V13.5884H9.328V16.6444H14.752V18.5644H9.328V21.6684H15.072V23.5884H7.152ZM20.9236 23.7804C20.1663 23.7804 19.4623 23.6417 18.8116 23.3644C18.1716 23.087 17.617 22.703 17.1476 22.2124C16.689 21.711 16.353 21.1297 16.1396 20.4684L17.9476 19.6844C18.2356 20.367 18.6516 20.9057 19.1956 21.3004C19.7396 21.6844 20.353 21.8764 21.0356 21.8764C21.4196 21.8764 21.7503 21.8177 22.0276 21.7004C22.3156 21.5724 22.5343 21.4017 22.6836 21.1884C22.8436 20.975 22.9236 20.719 22.9236 20.4204C22.9236 20.0684 22.817 19.7804 22.6036 19.5564C22.401 19.3217 22.0916 19.1404 21.6756 19.0124L19.3876 18.2764C18.4596 17.9884 17.761 17.5564 17.2916 16.9804C16.8223 16.4044 16.5876 15.727 16.5876 14.9484C16.5876 14.2657 16.753 13.663 17.0836 13.1404C17.425 12.6177 17.8943 12.2124 18.4916 11.9244C19.0996 11.6257 19.793 11.4764 20.5716 11.4764C21.2863 11.4764 21.9423 11.6044 22.5396 11.8604C23.137 12.1057 23.649 12.4524 24.0756 12.9004C24.513 13.3377 24.8383 13.855 25.0516 14.4524L23.2596 15.2524C23.025 14.655 22.673 14.1964 22.2036 13.8764C21.7343 13.5457 21.1903 13.3804 20.5716 13.3804C20.209 13.3804 19.889 13.4444 19.6116 13.5724C19.3343 13.6897 19.1156 13.8604 18.9556 14.0844C18.8063 14.2977 18.7316 14.5537 18.7316 14.8524C18.7316 15.183 18.8383 15.4764 19.0516 15.7324C19.265 15.9777 19.5903 16.1697 20.0276 16.3084L22.2196 16.9964C23.169 17.3057 23.8783 17.7324 24.3476 18.2764C24.8276 18.8204 25.0676 19.4924 25.0676 20.2924C25.0676 20.975 24.8916 21.5777 24.5396 22.1004C24.1876 22.623 23.7023 23.0337 23.0836 23.3324C22.465 23.631 21.745 23.7804 20.9236 23.7804Z" fill="white"/>
</svg>
