<svg width="32" height="33" viewBox="0 0 32 33" fill="none" xmlns="http://www.w3.org/2000/svg">
<rect y="0.588379" width="32" height="32" rx="16" fill="#5271FF"/>
<path d="M6.652 23.5884V11.6684H8.732L13.196 17.7324H12.204L16.572 11.6684H18.652V23.5884H16.46V14.1484L17.308 14.3564L12.78 20.3884H12.524L8.108 14.3564L8.828 14.1484V23.5884H6.652ZM20.4053 23.5884V21.5884H21.0933C21.6053 21.5884 22.0106 21.4444 22.3093 21.1564C22.6186 20.8577 22.7733 20.463 22.7733 19.9724V11.6684H24.9653V19.8924C24.9653 20.6284 24.8053 21.2737 24.4852 21.8284C24.1759 22.383 23.7279 22.815 23.1413 23.1244C22.5653 23.4337 21.8826 23.5884 21.0933 23.5884H20.4053Z" fill="white"/>
</svg>
