<svg width="356" height="416" viewBox="0 0 356 416" fill="none" xmlns="http://www.w3.org/2000/svg">
<rect x="0.5" y="0.5" width="355" height="414.588" rx="24.5" fill="white"/>
<rect x="0.5" y="0.5" width="355" height="414.588" rx="24.5" stroke="#F0F0F0"/>
<path d="M21.232 35V24.57H24.662C25.698 24.57 26.5987 24.7847 27.364 25.214C28.1293 25.634 28.722 26.236 29.142 27.02C29.562 27.7947 29.772 28.714 29.772 29.778C29.772 30.8327 29.562 31.752 29.142 32.536C28.722 33.32 28.1293 33.9267 27.364 34.356C26.5987 34.7853 25.698 35 24.662 35H21.232ZM22.352 33.95H24.662C25.4647 33.95 26.16 33.782 26.748 33.446C27.336 33.1007 27.7887 32.6153 28.106 31.99C28.4327 31.3647 28.596 30.6273 28.596 29.778C28.596 28.9287 28.4327 28.196 28.106 27.58C27.7793 26.9547 27.322 26.474 26.734 26.138C26.146 25.7927 25.4553 25.62 24.662 25.62H22.352V33.95ZM31.4686 35V27.496H32.5186V35H31.4686ZM31.4686 26.11V24.57H32.5186V26.11H31.4686ZM37.2718 35.168C36.5532 35.168 35.9232 34.986 35.3818 34.622C34.8405 34.258 34.4485 33.7633 34.2058 33.138L35.0878 32.718C35.3025 33.1753 35.6012 33.5393 35.9838 33.81C36.3758 34.0807 36.8052 34.216 37.2718 34.216C37.7198 34.216 38.0978 34.1087 38.4058 33.894C38.7138 33.67 38.8678 33.3807 38.8678 33.026C38.8678 32.7647 38.7932 32.5593 38.6438 32.41C38.4945 32.2513 38.3218 32.13 38.1258 32.046C37.9298 31.962 37.7572 31.9013 37.6078 31.864L36.5298 31.556C35.8392 31.36 35.3398 31.0847 35.0318 30.73C34.7238 30.3753 34.5698 29.9647 34.5698 29.498C34.5698 29.0593 34.6818 28.6767 34.9058 28.35C35.1298 28.0233 35.4332 27.7713 35.8158 27.594C36.1985 27.4167 36.6232 27.328 37.0898 27.328C37.7245 27.328 38.2985 27.496 38.8118 27.832C39.3345 28.1587 39.7032 28.616 39.9178 29.204L39.0218 29.624C38.8352 29.204 38.5645 28.8773 38.2098 28.644C37.8645 28.4013 37.4772 28.28 37.0478 28.28C36.6278 28.28 36.2918 28.3873 36.0398 28.602C35.7878 28.8167 35.6618 29.0873 35.6618 29.414C35.6618 29.666 35.7272 29.8667 35.8578 30.016C35.9885 30.1653 36.1378 30.2773 36.3058 30.352C36.4832 30.4267 36.6372 30.4827 36.7678 30.52L38.0138 30.884C38.6205 31.0613 39.0918 31.3367 39.4278 31.71C39.7732 32.0833 39.9458 32.522 39.9458 33.026C39.9458 33.4367 39.8292 33.8053 39.5958 34.132C39.3718 34.4587 39.0592 34.7153 38.6578 34.902C38.2565 35.0793 37.7945 35.168 37.2718 35.168ZM41.7909 37.8V27.496H42.8409V29.176L42.6729 28.882C42.9716 28.406 43.3682 28.028 43.8629 27.748C44.3669 27.468 44.9409 27.328 45.5849 27.328C46.2942 27.328 46.9242 27.5007 47.4749 27.846C48.0349 28.182 48.4736 28.644 48.7909 29.232C49.1176 29.82 49.2809 30.492 49.2809 31.248C49.2809 31.9947 49.1176 32.6667 48.7909 33.264C48.4736 33.852 48.0349 34.3187 47.4749 34.664C46.9242 35 46.2942 35.168 45.5849 35.168C44.9409 35.168 44.3576 35.0233 43.8349 34.734C43.3216 34.4353 42.9342 34.0153 42.6729 33.474L42.8409 33.32V37.8H41.7909ZM45.5289 34.118C46.0329 34.118 46.4809 33.992 46.8729 33.74C47.2742 33.488 47.5869 33.1473 47.8109 32.718C48.0442 32.2793 48.1609 31.7893 48.1609 31.248C48.1609 30.6973 48.0442 30.2073 47.8109 29.778C47.5869 29.3487 47.2742 29.008 46.8729 28.756C46.4809 28.504 46.0329 28.378 45.5289 28.378C45.0249 28.378 44.5676 28.504 44.1569 28.756C43.7556 29.008 43.4336 29.3533 43.1909 29.792C42.9576 30.2213 42.8409 30.7067 42.8409 31.248C42.8409 31.7893 42.9576 32.2793 43.1909 32.718C43.4336 33.1473 43.7556 33.488 44.1569 33.74C44.5676 33.992 45.0249 34.118 45.5289 34.118ZM53.7888 35.168C53.2661 35.168 52.7901 35.0467 52.3608 34.804C51.9314 34.552 51.5908 34.2067 51.3388 33.768C51.0961 33.32 50.9748 32.8067 50.9748 32.228V27.496H52.0248V32.102C52.0248 32.5033 52.1041 32.858 52.2628 33.166C52.4308 33.4647 52.6594 33.698 52.9488 33.866C53.2474 34.034 53.5881 34.118 53.9708 34.118C54.3534 34.118 54.6941 34.034 54.9928 33.866C55.2914 33.6887 55.5248 33.4413 55.6928 33.124C55.8608 32.7973 55.9448 32.41 55.9448 31.962V27.496H56.9948V35H55.9448V33.544L56.1828 33.6C56.0054 34.0853 55.7021 34.468 55.2728 34.748C54.8434 35.028 54.3488 35.168 53.7888 35.168ZM62.0242 35.084C61.3522 35.084 60.8342 34.888 60.4702 34.496C60.1062 34.104 59.9242 33.544 59.9242 32.816V28.546H58.5382V27.496H58.8882C59.2055 27.496 59.4575 27.3933 59.6442 27.188C59.8308 26.9733 59.9242 26.7073 59.9242 26.39V25.76H60.9742V27.496H62.6262V28.546H60.9742V32.816C60.9742 33.068 61.0115 33.292 61.0862 33.488C61.1608 33.6747 61.2868 33.824 61.4642 33.936C61.6508 34.048 61.8982 34.104 62.2062 34.104C62.2808 34.104 62.3695 34.0993 62.4722 34.09C62.5748 34.0807 62.6635 34.0713 62.7382 34.062V35C62.6262 35.028 62.5002 35.0467 62.3602 35.056C62.2202 35.0747 62.1082 35.084 62.0242 35.084ZM67.7245 35.168C67.0245 35.168 66.3898 35 65.8205 34.664C65.2605 34.3187 64.8171 33.8473 64.4905 33.25C64.1638 32.6527 64.0005 31.976 64.0005 31.22C64.0005 30.464 64.1591 29.7967 64.4765 29.218C64.7938 28.63 65.2231 28.168 65.7645 27.832C66.3151 27.496 66.9311 27.328 67.6125 27.328C68.1538 27.328 68.6345 27.4307 69.0545 27.636C69.4838 27.832 69.8478 28.1027 70.1465 28.448C70.4451 28.784 70.6738 29.1667 70.8325 29.596C70.9911 30.016 71.0705 30.45 71.0705 30.898C71.0705 30.9913 71.0658 31.0987 71.0565 31.22C71.0471 31.332 71.0331 31.4487 71.0145 31.57H64.6725V30.59H70.4125L69.9085 31.01C69.9925 30.4967 69.9318 30.0393 69.7265 29.638C69.5305 29.2273 69.2458 28.9053 68.8725 28.672C68.4991 28.4293 68.0791 28.308 67.6125 28.308C67.1458 28.308 66.7118 28.4293 66.3105 28.672C65.9185 28.9147 65.6105 29.2553 65.3865 29.694C65.1625 30.1233 65.0738 30.6367 65.1205 31.234C65.0738 31.8313 65.1671 32.354 65.4005 32.802C65.6431 33.2407 65.9698 33.5813 66.3805 33.824C66.8005 34.0667 67.2485 34.188 67.7245 34.188C68.2751 34.188 68.7371 34.0573 69.1105 33.796C69.4838 33.5347 69.7871 33.208 70.0205 32.816L70.9165 33.292C70.7671 33.628 70.5385 33.9407 70.2305 34.23C69.9225 34.51 69.5538 34.7387 69.1245 34.916C68.7045 35.084 68.2378 35.168 67.7245 35.168ZM75.5258 35.168C74.8071 35.168 74.1771 34.986 73.6358 34.622C73.0944 34.258 72.7024 33.7633 72.4598 33.138L73.3418 32.718C73.5564 33.1753 73.8551 33.5393 74.2378 33.81C74.6298 34.0807 75.0591 34.216 75.5258 34.216C75.9738 34.216 76.3518 34.1087 76.6598 33.894C76.9678 33.67 77.1218 33.3807 77.1218 33.026C77.1218 32.7647 77.0471 32.5593 76.8978 32.41C76.7484 32.2513 76.5758 32.13 76.3798 32.046C76.1838 31.962 76.0111 31.9013 75.8618 31.864L74.7838 31.556C74.0931 31.36 73.5938 31.0847 73.2858 30.73C72.9778 30.3753 72.8238 29.9647 72.8238 29.498C72.8238 29.0593 72.9358 28.6767 73.1598 28.35C73.3838 28.0233 73.6871 27.7713 74.0698 27.594C74.4524 27.4167 74.8771 27.328 75.3438 27.328C75.9784 27.328 76.5524 27.496 77.0658 27.832C77.5884 28.1587 77.9571 28.616 78.1718 29.204L77.2758 29.624C77.0891 29.204 76.8184 28.8773 76.4638 28.644C76.1184 28.4013 75.7311 28.28 75.3018 28.28C74.8818 28.28 74.5458 28.3873 74.2938 28.602C74.0418 28.8167 73.9158 29.0873 73.9158 29.414C73.9158 29.666 73.9811 29.8667 74.1118 30.016C74.2424 30.1653 74.3918 30.2773 74.5598 30.352C74.7371 30.4267 74.8911 30.4827 75.0218 30.52L76.2678 30.884C76.8744 31.0613 77.3458 31.3367 77.6818 31.71C78.0271 32.0833 78.1998 32.522 78.1998 33.026C78.1998 33.4367 78.0831 33.8053 77.8498 34.132C77.6258 34.4587 77.3131 34.7153 76.9118 34.902C76.5104 35.0793 76.0484 35.168 75.5258 35.168ZM86.2177 35.168C85.5737 35.168 84.9904 35.0233 84.4677 34.734C83.9544 34.4353 83.567 34.0153 83.3057 33.474L83.4737 33.32V35H82.4237V24.402H83.4737V29.176L83.3057 28.882C83.6044 28.406 84.001 28.028 84.4957 27.748C84.9997 27.468 85.5737 27.328 86.2177 27.328C86.927 27.328 87.557 27.5007 88.1077 27.846C88.6677 28.182 89.1064 28.644 89.4237 29.232C89.7504 29.82 89.9137 30.492 89.9137 31.248C89.9137 31.9947 89.7504 32.6667 89.4237 33.264C89.1064 33.852 88.6677 34.3187 88.1077 34.664C87.557 35 86.927 35.168 86.2177 35.168ZM86.1617 34.118C86.6657 34.118 87.1137 33.992 87.5057 33.74C87.907 33.488 88.2197 33.1473 88.4437 32.718C88.677 32.2793 88.7937 31.7893 88.7937 31.248C88.7937 30.6973 88.677 30.2073 88.4437 29.778C88.2197 29.3487 87.907 29.008 87.5057 28.756C87.1137 28.504 86.6657 28.378 86.1617 28.378C85.6577 28.378 85.2004 28.504 84.7897 28.756C84.3884 29.008 84.0664 29.3533 83.8237 29.792C83.5904 30.2213 83.4737 30.7067 83.4737 31.248C83.4737 31.7893 83.5904 32.2793 83.8237 32.718C84.0664 33.1473 84.3884 33.488 84.7897 33.74C85.2004 33.992 85.6577 34.118 86.1617 34.118ZM91.7616 35V27.496H92.8116V28.728L92.6716 28.546C92.8489 28.1913 93.1149 27.9113 93.4696 27.706C93.8336 27.5007 94.2723 27.398 94.7856 27.398H95.2616V28.448H94.6036C94.0623 28.448 93.6283 28.616 93.3016 28.952C92.9749 29.288 92.8116 29.764 92.8116 30.38V35H91.7616ZM99.9081 35.168C99.2081 35.168 98.5734 35 98.0041 34.664C97.4441 34.3187 97.0007 33.8473 96.6741 33.25C96.3474 32.6527 96.1841 31.976 96.1841 31.22C96.1841 30.464 96.3427 29.7967 96.6601 29.218C96.9774 28.63 97.4067 28.168 97.9481 27.832C98.4987 27.496 99.1147 27.328 99.7961 27.328C100.337 27.328 100.818 27.4307 101.238 27.636C101.667 27.832 102.031 28.1027 102.33 28.448C102.629 28.784 102.857 29.1667 103.016 29.596C103.175 30.016 103.254 30.45 103.254 30.898C103.254 30.9913 103.249 31.0987 103.24 31.22C103.231 31.332 103.217 31.4487 103.198 31.57H96.8561V30.59H102.596L102.092 31.01C102.176 30.4967 102.115 30.0393 101.91 29.638C101.714 29.2273 101.429 28.9053 101.056 28.672C100.683 28.4293 100.263 28.308 99.7961 28.308C99.3294 28.308 98.8954 28.4293 98.4941 28.672C98.1021 28.9147 97.7941 29.2553 97.5701 29.694C97.3461 30.1233 97.2574 30.6367 97.3041 31.234C97.2574 31.8313 97.3507 32.354 97.5841 32.802C97.8267 33.2407 98.1534 33.5813 98.5641 33.824C98.9841 34.0667 99.4321 34.188 99.9081 34.188C100.459 34.188 100.921 34.0573 101.294 33.796C101.667 33.5347 101.971 33.208 102.204 32.816L103.1 33.292C102.951 33.628 102.722 33.9407 102.414 34.23C102.106 34.51 101.737 34.7387 101.308 34.916C100.888 35.084 100.421 35.168 99.9081 35.168ZM107.139 35.168C106.663 35.168 106.238 35.0793 105.865 34.902C105.491 34.7153 105.197 34.4633 104.983 34.146C104.768 33.8287 104.661 33.4647 104.661 33.054C104.661 32.662 104.745 32.3073 104.913 31.99C105.081 31.6633 105.342 31.388 105.697 31.164C106.051 30.94 106.504 30.7813 107.055 30.688L109.995 30.198V31.15L107.307 31.598C106.765 31.6913 106.373 31.864 106.131 32.116C105.897 32.368 105.781 32.6667 105.781 33.012C105.781 33.348 105.911 33.6327 106.173 33.866C106.443 34.0993 106.789 34.216 107.209 34.216C107.722 34.216 108.17 34.1087 108.553 33.894C108.935 33.67 109.234 33.3713 109.449 32.998C109.663 32.6247 109.771 32.2093 109.771 31.752V29.848C109.771 29.4 109.607 29.036 109.281 28.756C108.954 28.476 108.529 28.336 108.007 28.336C107.549 28.336 107.148 28.4527 106.803 28.686C106.457 28.91 106.201 29.204 106.033 29.568L105.081 29.05C105.221 28.7327 105.44 28.4433 105.739 28.182C106.047 27.9207 106.397 27.7153 106.789 27.566C107.181 27.4073 107.587 27.328 108.007 27.328C108.557 27.328 109.043 27.4353 109.463 27.65C109.892 27.8647 110.223 28.1633 110.457 28.546C110.699 28.9193 110.821 29.3533 110.821 29.848V35H109.771V33.502L109.925 33.656C109.794 33.936 109.589 34.1927 109.309 34.426C109.038 34.65 108.716 34.832 108.343 34.972C107.979 35.1027 107.577 35.168 107.139 35.168ZM112.98 35V24.402H114.03V31.822L113.582 31.752L117.796 27.496H119.154L116.214 30.506L119.42 35H118.16L115.15 30.842L115.822 30.898L113.68 33.11L114.03 32.242V35H112.98ZM123.902 35.168C123.202 35.168 122.572 35 122.012 34.664C121.452 34.3187 121.008 33.852 120.682 33.264C120.364 32.6667 120.206 31.9947 120.206 31.248C120.206 30.492 120.364 29.82 120.682 29.232C121.008 28.644 121.447 28.182 121.998 27.846C122.558 27.5007 123.192 27.328 123.902 27.328C124.546 27.328 125.12 27.468 125.624 27.748C126.128 28.028 126.524 28.406 126.814 28.882L126.646 29.176V24.402H127.696V35H126.646V33.32L126.814 33.474C126.552 34.0153 126.16 34.4353 125.638 34.734C125.124 35.0233 124.546 35.168 123.902 35.168ZM123.958 34.118C124.462 34.118 124.914 33.992 125.316 33.74C125.726 33.488 126.048 33.1473 126.282 32.718C126.524 32.2793 126.646 31.7893 126.646 31.248C126.646 30.7067 126.524 30.2213 126.282 29.792C126.048 29.3533 125.726 29.008 125.316 28.756C124.914 28.504 124.462 28.378 123.958 28.378C123.463 28.378 123.015 28.504 122.614 28.756C122.212 29.008 121.895 29.3487 121.662 29.778C121.438 30.2073 121.326 30.6973 121.326 31.248C121.326 31.7893 121.438 32.2793 121.662 32.718C121.895 33.1473 122.208 33.488 122.6 33.74C123.001 33.992 123.454 34.118 123.958 34.118ZM133.365 35.168C132.656 35.168 132.012 35 131.433 34.664C130.855 34.3187 130.393 33.852 130.047 33.264C129.711 32.6667 129.543 31.99 129.543 31.234C129.543 30.4873 129.711 29.82 130.047 29.232C130.383 28.644 130.836 28.182 131.405 27.846C131.984 27.5007 132.637 27.328 133.365 27.328C134.093 27.328 134.742 27.496 135.311 27.832C135.89 28.168 136.343 28.63 136.669 29.218C137.005 29.806 137.173 30.478 137.173 31.234C137.173 31.9993 137.001 32.6807 136.655 33.278C136.31 33.866 135.848 34.328 135.269 34.664C134.7 35 134.065 35.168 133.365 35.168ZM133.365 34.118C133.869 34.118 134.322 33.992 134.723 33.74C135.134 33.488 135.456 33.1427 135.689 32.704C135.932 32.2653 136.053 31.7753 136.053 31.234C136.053 30.6927 135.932 30.2073 135.689 29.778C135.456 29.3487 135.134 29.008 134.723 28.756C134.322 28.504 133.869 28.378 133.365 28.378C132.861 28.378 132.404 28.504 131.993 28.756C131.592 29.008 131.27 29.3487 131.027 29.778C130.785 30.2073 130.663 30.6927 130.663 31.234C130.663 31.7753 130.785 32.2653 131.027 32.704C131.27 33.1427 131.592 33.488 131.993 33.74C132.404 33.992 132.861 34.118 133.365 34.118ZM140.541 35L137.965 27.496H139.155L141.283 34.062H140.863L142.865 27.496H143.915L145.917 34.062H145.497L147.639 27.496H148.815L146.239 35H145.189L143.243 28.574H143.537L141.591 35H140.541ZM150.045 35V27.496H151.095V28.952L150.857 28.896C151.043 28.4107 151.347 28.028 151.767 27.748C152.196 27.468 152.691 27.328 153.251 27.328C153.783 27.328 154.259 27.4493 154.679 27.692C155.108 27.9347 155.444 28.2707 155.687 28.7C155.939 29.12 156.065 29.596 156.065 30.128V35H155.015V30.534C155.015 30.0767 154.931 29.6893 154.763 29.372C154.604 29.0547 154.375 28.812 154.077 28.644C153.787 28.4667 153.451 28.378 153.069 28.378C152.686 28.378 152.345 28.4667 152.047 28.644C151.748 28.812 151.515 29.0593 151.347 29.386C151.179 29.7033 151.095 30.086 151.095 30.534V35H150.045Z" fill="#5C5959"/>
<path d="M304.961 220.499C312.316 220.499 318.345 214.522 317.643 207.2C315.171 181.417 305.545 156.739 289.731 136.02C273.925 115.311 252.685 99.5378 228.504 90.3774C221.614 87.7673 214.25 92.0233 212.318 99.1336C210.388 106.237 214.621 113.488 221.443 116.251C240.008 123.768 256.309 136.156 268.567 152.216C280.83 168.282 288.488 187.292 290.856 207.211C291.724 214.515 297.605 220.499 304.961 220.499Z" fill="#FF9C33"/>
<path d="M244.904 113.348C248.657 107.251 246.744 99.2148 240.304 96.1144C222.022 87.3123 201.959 82.5472 181.509 82.2176C156.709 81.8178 132.234 87.9562 110.597 100.003C88.9602 112.049 70.9411 129.569 58.3895 150.765C48.0543 168.218 41.7329 187.645 39.8052 207.664C39.1186 214.794 44.9801 220.607 52.1413 220.602C59.3026 220.596 65.0377 214.766 65.8779 207.653C67.7038 192.194 72.7524 177.222 80.7575 163.704C90.9802 146.441 105.656 132.171 123.278 122.36C140.9 112.549 160.834 107.549 181.033 107.875C196.96 108.132 212.599 111.692 226.958 118.272C233.37 121.21 241.2 119.365 244.904 113.348Z" fill="#5271FF"/>
<path d="M145.828 165V153.08H149.732C150.937 153.08 151.988 153.325 152.884 153.816C153.78 154.307 154.473 155 154.964 155.896C155.455 156.781 155.7 157.827 155.7 159.032C155.7 160.227 155.455 161.272 154.964 162.168C154.473 163.064 153.78 163.763 152.884 164.264C151.988 164.755 150.937 165 149.732 165H145.828ZM147.396 163.56H149.748C150.633 163.56 151.396 163.373 152.036 163C152.687 162.627 153.188 162.104 153.54 161.432C153.892 160.749 154.068 159.949 154.068 159.032C154.068 158.104 153.887 157.304 153.524 156.632C153.172 155.96 152.671 155.443 152.02 155.08C151.38 154.707 150.623 154.52 149.748 154.52H147.396V163.56ZM157.511 165V156.376H158.999V165H157.511ZM157.511 155V153.08H158.999V155H157.511ZM164.396 165.192C163.532 165.192 162.78 164.979 162.14 164.552C161.5 164.125 161.047 163.549 160.78 162.824L161.964 162.248C162.21 162.76 162.546 163.165 162.972 163.464C163.399 163.763 163.874 163.912 164.396 163.912C164.866 163.912 165.255 163.8 165.564 163.576C165.874 163.352 166.028 163.059 166.028 162.696C166.028 162.44 165.954 162.237 165.804 162.088C165.666 161.928 165.495 161.805 165.292 161.72C165.09 161.624 164.903 161.555 164.732 161.512L163.436 161.144C162.658 160.92 162.087 160.6 161.724 160.184C161.372 159.768 161.196 159.283 161.196 158.728C161.196 158.216 161.324 157.773 161.58 157.4C161.847 157.016 162.204 156.717 162.652 156.504C163.111 156.291 163.623 156.184 164.188 156.184C164.946 156.184 165.623 156.376 166.22 156.76C166.828 157.144 167.26 157.683 167.516 158.376L166.3 158.936C166.108 158.488 165.82 158.136 165.436 157.88C165.052 157.613 164.62 157.48 164.14 157.48C163.703 157.48 163.356 157.592 163.1 157.816C162.844 158.029 162.716 158.301 162.716 158.632C162.716 158.877 162.78 159.08 162.908 159.24C163.036 159.389 163.191 159.507 163.372 159.592C163.554 159.667 163.73 159.731 163.9 159.784L165.308 160.2C166.012 160.403 166.556 160.717 166.94 161.144C167.335 161.571 167.532 162.083 167.532 162.68C167.532 163.16 167.399 163.592 167.132 163.976C166.866 164.36 166.498 164.659 166.028 164.872C165.559 165.085 165.015 165.192 164.396 165.192ZM169.48 168.2V156.376H170.936V158.232L170.744 157.864C171.064 157.352 171.501 156.947 172.056 156.648C172.611 156.339 173.245 156.184 173.96 156.184C174.771 156.184 175.496 156.381 176.136 156.776C176.787 157.171 177.299 157.709 177.672 158.392C178.045 159.064 178.232 159.832 178.232 160.696C178.232 161.539 178.045 162.301 177.672 162.984C177.299 163.667 176.787 164.205 176.136 164.6C175.496 164.995 174.765 165.192 173.944 165.192C173.251 165.192 172.616 165.037 172.04 164.728C171.475 164.419 171.037 163.981 170.728 163.416L170.968 163.16V168.2H169.48ZM173.832 163.752C174.376 163.752 174.861 163.619 175.288 163.352C175.715 163.085 176.045 162.723 176.28 162.264C176.525 161.795 176.648 161.272 176.648 160.696C176.648 160.099 176.525 159.576 176.28 159.128C176.045 158.669 175.715 158.307 175.288 158.04C174.861 157.763 174.376 157.624 173.832 157.624C173.288 157.624 172.797 157.757 172.36 158.024C171.933 158.291 171.592 158.659 171.336 159.128C171.091 159.587 170.968 160.109 170.968 160.696C170.968 161.272 171.091 161.795 171.336 162.264C171.592 162.723 171.933 163.085 172.36 163.352C172.797 163.619 173.288 163.752 173.832 163.752ZM183.239 165.192C182.621 165.192 182.061 165.048 181.559 164.76C181.069 164.472 180.685 164.072 180.407 163.56C180.141 163.037 180.007 162.44 180.007 161.768V156.376H181.495V161.608C181.495 162.035 181.581 162.408 181.751 162.728C181.933 163.048 182.178 163.299 182.487 163.48C182.807 163.661 183.17 163.752 183.575 163.752C183.981 163.752 184.338 163.661 184.647 163.48C184.967 163.299 185.213 163.037 185.383 162.696C185.565 162.355 185.655 161.949 185.655 161.48V156.376H187.159V165H185.703V163.32L185.943 163.464C185.741 164.008 185.394 164.435 184.903 164.744C184.423 165.043 183.869 165.192 183.239 165.192ZM192.969 165.096C192.126 165.096 191.475 164.856 191.017 164.376C190.569 163.896 190.345 163.219 190.345 162.344V157.8H188.777V156.376H189.097C189.481 156.376 189.785 156.259 190.009 156.024C190.233 155.789 190.345 155.48 190.345 155.096V154.392H191.833V156.376H193.769V157.8H191.833V162.296C191.833 162.584 191.875 162.835 191.961 163.048C192.057 163.261 192.211 163.432 192.424 163.56C192.638 163.677 192.921 163.736 193.273 163.736C193.347 163.736 193.438 163.731 193.545 163.72C193.662 163.709 193.769 163.699 193.865 163.688V165C193.726 165.032 193.571 165.053 193.401 165.064C193.23 165.085 193.086 165.096 192.969 165.096ZM199.542 165.192C198.71 165.192 197.969 164.995 197.318 164.6C196.667 164.205 196.155 163.667 195.782 162.984C195.409 162.291 195.222 161.517 195.222 160.664C195.222 159.8 195.403 159.032 195.766 158.36C196.139 157.688 196.641 157.16 197.27 156.776C197.91 156.381 198.625 156.184 199.414 156.184C200.054 156.184 200.619 156.301 201.11 156.536C201.611 156.76 202.033 157.069 202.374 157.464C202.726 157.848 202.993 158.291 203.174 158.792C203.366 159.283 203.462 159.795 203.462 160.328C203.462 160.445 203.451 160.579 203.43 160.728C203.419 160.867 203.403 161 203.382 161.128H196.31V159.848H202.518L201.814 160.424C201.91 159.869 201.857 159.373 201.654 158.936C201.451 158.499 201.153 158.152 200.758 157.896C200.363 157.64 199.915 157.512 199.414 157.512C198.913 157.512 198.454 157.64 198.038 157.896C197.622 158.152 197.297 158.52 197.062 159C196.838 159.469 196.747 160.029 196.79 160.68C196.747 161.309 196.843 161.864 197.078 162.344C197.323 162.813 197.665 163.181 198.102 163.448C198.55 163.704 199.035 163.832 199.558 163.832C200.134 163.832 200.619 163.699 201.014 163.432C201.409 163.165 201.729 162.824 201.974 162.408L203.222 163.048C203.051 163.443 202.785 163.805 202.422 164.136C202.07 164.456 201.649 164.712 201.158 164.904C200.678 165.096 200.139 165.192 199.542 165.192ZM208.49 165.192C207.626 165.192 206.874 164.979 206.234 164.552C205.594 164.125 205.141 163.549 204.874 162.824L206.058 162.248C206.303 162.76 206.639 163.165 207.066 163.464C207.493 163.763 207.967 163.912 208.49 163.912C208.959 163.912 209.349 163.8 209.658 163.576C209.967 163.352 210.122 163.059 210.122 162.696C210.122 162.44 210.047 162.237 209.898 162.088C209.759 161.928 209.589 161.805 209.386 161.72C209.183 161.624 208.997 161.555 208.826 161.512L207.53 161.144C206.751 160.92 206.181 160.6 205.818 160.184C205.466 159.768 205.29 159.283 205.29 158.728C205.29 158.216 205.418 157.773 205.674 157.4C205.941 157.016 206.298 156.717 206.746 156.504C207.205 156.291 207.717 156.184 208.282 156.184C209.039 156.184 209.717 156.376 210.314 156.76C210.922 157.144 211.354 157.683 211.61 158.376L210.394 158.936C210.202 158.488 209.914 158.136 209.53 157.88C209.146 157.613 208.714 157.48 208.234 157.48C207.797 157.48 207.45 157.592 207.194 157.816C206.938 158.029 206.81 158.301 206.81 158.632C206.81 158.877 206.874 159.08 207.002 159.24C207.13 159.389 207.285 159.507 207.466 159.592C207.647 159.667 207.823 159.731 207.994 159.784L209.402 160.2C210.106 160.403 210.65 160.717 211.034 161.144C211.429 161.571 211.626 162.083 211.626 162.68C211.626 163.16 211.493 163.592 211.226 163.976C210.959 164.36 210.591 164.659 210.122 164.872C209.653 165.085 209.109 165.192 208.49 165.192Z" fill="#5C5959"/>
<path d="M131.784 216V198.12H135.816L142.56 214.416L141.552 214.704V198.12H144.696V216H140.616L133.992 199.584L134.928 199.32V216H131.784ZM129.864 208.056V206.04H146.616V208.056H129.864ZM154.573 216.288C153.629 216.288 152.725 216.112 151.861 215.76C151.013 215.408 150.277 214.912 149.653 214.272C149.045 213.616 148.629 212.84 148.405 211.944L151.237 210.936C151.509 211.752 151.949 212.36 152.557 212.76C153.165 213.144 153.837 213.336 154.573 213.336C155.181 213.336 155.717 213.208 156.181 212.952C156.661 212.68 157.029 212.312 157.285 211.848C157.541 211.368 157.669 210.816 157.669 210.192C157.669 209.568 157.533 209.024 157.261 208.56C157.005 208.096 156.645 207.736 156.181 207.48C155.717 207.208 155.181 207.072 154.573 207.072C153.949 207.072 153.381 207.208 152.869 207.48C152.373 207.752 152.013 208.144 151.789 208.656L149.125 208.056L150.541 198.12H160.285V200.88H151.837L153.061 199.464L152.053 206.952L151.117 206.184C151.565 205.528 152.109 205.048 152.749 204.744C153.405 204.44 154.197 204.288 155.125 204.288C156.309 204.288 157.333 204.544 158.197 205.056C159.077 205.568 159.757 206.264 160.237 207.144C160.717 208.024 160.957 209.04 160.957 210.192C160.957 211.344 160.677 212.384 160.117 213.312C159.557 214.24 158.797 214.968 157.837 215.496C156.877 216.024 155.789 216.288 154.573 216.288ZM166.363 216V200.904H162.907V198.12H169.627V216H166.363ZM174.363 219.744V218.184C174.891 218.056 175.315 217.808 175.635 217.44C175.971 217.088 176.179 216.608 176.259 216H174.843V212.64H178.011V214.704C178.011 216.112 177.699 217.24 177.075 218.088C176.467 218.936 175.563 219.488 174.363 219.744ZM188.965 216.288C187.541 216.288 186.293 215.904 185.221 215.136C184.149 214.368 183.309 213.288 182.701 211.896C182.109 210.504 181.813 208.888 181.813 207.048C181.813 205.192 182.109 203.576 182.701 202.2C183.293 200.824 184.125 199.752 185.197 198.984C186.269 198.216 187.517 197.832 188.941 197.832C190.397 197.832 191.653 198.216 192.709 198.984C193.781 199.752 194.621 200.832 195.229 202.224C195.837 203.6 196.141 205.208 196.141 207.048C196.141 208.888 195.837 210.504 195.229 211.896C194.637 213.272 193.805 214.352 192.733 215.136C191.661 215.904 190.405 216.288 188.965 216.288ZM188.989 213.312C189.805 213.312 190.501 213.064 191.077 212.568C191.653 212.056 192.093 211.336 192.397 210.408C192.717 209.464 192.877 208.344 192.877 207.048C192.877 205.752 192.717 204.64 192.397 203.712C192.093 202.768 191.645 202.048 191.053 201.552C190.477 201.056 189.773 200.808 188.941 200.808C188.141 200.808 187.453 201.056 186.877 201.552C186.301 202.048 185.853 202.768 185.533 203.712C185.229 204.64 185.077 205.752 185.077 207.048C185.077 208.328 185.229 209.44 185.533 210.384C185.853 211.312 186.301 212.032 186.877 212.544C187.469 213.056 188.173 213.312 188.989 213.312ZM205.045 216.288C203.749 216.288 202.621 216.048 201.661 215.568C200.717 215.072 199.981 214.408 199.453 213.576C198.941 212.744 198.685 211.832 198.685 210.84C198.685 209.672 198.997 208.688 199.621 207.888C200.245 207.072 201.149 206.472 202.333 206.088L202.141 206.88C201.293 206.608 200.621 206.08 200.125 205.296C199.645 204.512 199.405 203.648 199.405 202.704C199.405 201.76 199.645 200.92 200.125 200.184C200.605 199.448 201.269 198.872 202.117 198.456C202.965 198.04 203.941 197.832 205.045 197.832C206.133 197.832 207.093 198.04 207.925 198.456C208.773 198.872 209.437 199.448 209.917 200.184C210.413 200.92 210.661 201.76 210.661 202.704C210.661 203.664 210.413 204.536 209.917 205.32C209.437 206.088 208.773 206.616 207.925 206.904L207.757 206.064C208.941 206.48 209.845 207.096 210.469 207.912C211.093 208.712 211.405 209.696 211.405 210.864C211.405 211.856 211.141 212.768 210.613 213.6C210.101 214.416 209.365 215.072 208.405 215.568C207.461 216.048 206.341 216.288 205.045 216.288ZM205.045 213.528C205.669 213.528 206.213 213.416 206.677 213.192C207.141 212.952 207.501 212.624 207.757 212.208C208.013 211.776 208.141 211.288 208.141 210.744C208.141 210.184 208.013 209.704 207.757 209.304C207.501 208.888 207.141 208.568 206.677 208.344C206.213 208.104 205.669 207.984 205.045 207.984C204.421 207.984 203.877 208.104 203.413 208.344C202.965 208.568 202.613 208.888 202.357 209.304C202.101 209.704 201.973 210.184 201.973 210.744C201.973 211.288 202.101 211.776 202.357 212.208C202.613 212.624 202.965 212.952 203.413 213.192C203.877 213.416 204.421 213.528 205.045 213.528ZM205.045 205.224C205.509 205.224 205.917 205.12 206.269 204.912C206.621 204.704 206.893 204.432 207.085 204.096C207.293 203.744 207.397 203.344 207.397 202.896C207.397 202.448 207.293 202.056 207.085 201.72C206.893 201.368 206.621 201.096 206.269 200.904C205.917 200.696 205.509 200.592 205.045 200.592C204.581 200.592 204.165 200.696 203.797 200.904C203.445 201.096 203.165 201.368 202.957 201.72C202.765 202.056 202.669 202.448 202.669 202.896C202.669 203.344 202.765 203.744 202.957 204.096C203.165 204.432 203.445 204.704 203.797 204.912C204.165 205.12 204.581 205.224 205.045 205.224ZM214.881 216L220.953 208.176L221.505 208.752C221.265 208.928 221.033 209.072 220.809 209.184C220.585 209.296 220.345 209.376 220.089 209.424C219.833 209.472 219.561 209.496 219.273 209.496C218.185 209.496 217.217 209.248 216.369 208.752C215.521 208.256 214.849 207.584 214.353 206.736C213.873 205.872 213.633 204.896 213.633 203.808C213.633 202.656 213.897 201.632 214.425 200.736C214.969 199.84 215.705 199.136 216.633 198.624C217.577 198.096 218.649 197.832 219.849 197.832C221.065 197.832 222.137 198.088 223.065 198.6C223.993 199.112 224.721 199.816 225.249 200.712C225.793 201.592 226.065 202.608 226.065 203.76C226.065 204.336 226.001 204.912 225.873 205.488C225.745 206.064 225.513 206.68 225.177 207.336C224.857 207.976 224.393 208.704 223.785 209.52L218.793 216H214.881ZM219.849 206.76C220.409 206.76 220.905 206.64 221.337 206.4C221.785 206.144 222.137 205.792 222.393 205.344C222.649 204.88 222.777 204.36 222.777 203.784C222.777 203.176 222.641 202.648 222.369 202.2C222.113 201.752 221.769 201.4 221.337 201.144C220.905 200.888 220.409 200.76 219.849 200.76C219.305 200.76 218.809 200.888 218.361 201.144C217.913 201.4 217.553 201.752 217.281 202.2C217.025 202.648 216.897 203.176 216.897 203.784C216.897 204.36 217.025 204.88 217.281 205.344C217.553 205.792 217.913 206.144 218.361 206.4C218.809 206.64 219.305 206.76 219.849 206.76Z" fill="#232323"/>
<g filter="url(#filter0_d_2_2996)">
<rect x="29" y="288" width="299" height="82" rx="20" fill="white"/>
<path d="M66.5 315C67.3284 315 68.0097 314.326 67.9064 313.504C67.5759 310.873 66.3801 308.41 64.4853 306.515C62.2348 304.264 59.1826 303 56 303C52.8174 303 49.7652 304.264 47.5147 306.515C45.6199 308.41 44.4241 310.873 44.0936 313.504C43.9903 314.326 44.6716 315 45.5 315C46.3284 315 46.9872 314.324 47.1247 313.507C47.4331 311.674 48.3043 309.968 49.636 308.636C51.3239 306.948 53.6131 306 56 306C58.3869 306 60.6761 306.948 62.364 308.636C63.6957 309.968 64.5669 311.674 64.8753 313.507C65.0128 314.324 65.6716 315 66.5 315Z" fill="#5271FF"/>
<path d="M71.056 319.5V310.56H74.128C74.712 310.56 75.224 310.676 75.664 310.908C76.104 311.132 76.444 311.452 76.684 311.868C76.932 312.276 77.056 312.752 77.056 313.296C77.056 313.928 76.888 314.468 76.552 314.916C76.224 315.364 75.776 315.68 75.208 315.864L77.296 319.5H76.168L73.984 315.648L74.632 316.02H72.016V319.5H71.056ZM72.016 315.12H74.176C74.56 315.12 74.896 315.048 75.184 314.904C75.472 314.752 75.696 314.54 75.856 314.268C76.016 313.988 76.096 313.66 76.096 313.284C76.096 312.908 76.016 312.584 75.856 312.312C75.696 312.04 75.472 311.832 75.184 311.688C74.896 311.536 74.56 311.46 74.176 311.46H72.016V315.12ZM81.1762 319.644C80.5762 319.644 80.0322 319.5 79.5442 319.212C79.0642 318.916 78.6842 318.512 78.4042 318C78.1242 317.488 77.9842 316.908 77.9842 316.26C77.9842 315.612 78.1202 315.04 78.3922 314.544C78.6642 314.04 79.0322 313.644 79.4962 313.356C79.9682 313.068 80.4962 312.924 81.0802 312.924C81.5442 312.924 81.9562 313.012 82.3162 313.188C82.6842 313.356 82.9962 313.588 83.2522 313.884C83.5082 314.172 83.7042 314.5 83.8402 314.868C83.9762 315.228 84.0442 315.6 84.0442 315.984C84.0442 316.064 84.0402 316.156 84.0322 316.26C84.0242 316.356 84.0122 316.456 83.9962 316.56H78.5602V315.72H83.4802L83.0482 316.08C83.1202 315.64 83.0682 315.248 82.8922 314.904C82.7242 314.552 82.4802 314.276 82.1602 314.076C81.8402 313.868 81.4802 313.764 81.0802 313.764C80.6802 313.764 80.3082 313.868 79.9642 314.076C79.6282 314.284 79.3642 314.576 79.1722 314.952C78.9802 315.32 78.9042 315.76 78.9442 316.272C78.9042 316.784 78.9842 317.232 79.1842 317.616C79.3922 317.992 79.6722 318.284 80.0242 318.492C80.3842 318.7 80.7682 318.804 81.1762 318.804C81.6482 318.804 82.0442 318.692 82.3642 318.468C82.6842 318.244 82.9442 317.964 83.1442 317.628L83.9122 318.036C83.7842 318.324 83.5882 318.592 83.3242 318.84C83.0602 319.08 82.7442 319.276 82.3762 319.428C82.0162 319.572 81.6162 319.644 81.1762 319.644ZM87.863 319.644C87.247 319.644 86.707 319.488 86.243 319.176C85.779 318.864 85.443 318.44 85.235 317.904L85.991 317.544C86.175 317.936 86.431 318.248 86.759 318.48C87.095 318.712 87.463 318.828 87.863 318.828C88.247 318.828 88.571 318.736 88.835 318.552C89.099 318.36 89.231 318.112 89.231 317.808C89.231 317.584 89.167 317.408 89.039 317.28C88.911 317.144 88.763 317.04 88.595 316.968C88.427 316.896 88.279 316.844 88.151 316.812L87.227 316.548C86.635 316.38 86.207 316.144 85.943 315.84C85.679 315.536 85.547 315.184 85.547 314.784C85.547 314.408 85.643 314.08 85.835 313.8C86.027 313.52 86.287 313.304 86.615 313.152C86.943 313 87.307 312.924 87.707 312.924C88.251 312.924 88.743 313.068 89.183 313.356C89.631 313.636 89.947 314.028 90.131 314.532L89.363 314.892C89.203 314.532 88.971 314.252 88.667 314.052C88.371 313.844 88.039 313.74 87.671 313.74C87.311 313.74 87.023 313.832 86.807 314.016C86.591 314.2 86.483 314.432 86.483 314.712C86.483 314.928 86.539 315.1 86.651 315.228C86.763 315.356 86.891 315.452 87.035 315.516C87.187 315.58 87.319 315.628 87.431 315.66L88.499 315.972C89.019 316.124 89.423 316.36 89.711 316.68C90.007 317 90.155 317.376 90.155 317.808C90.155 318.16 90.055 318.476 89.855 318.756C89.663 319.036 89.395 319.256 89.051 319.416C88.707 319.568 88.311 319.644 87.863 319.644ZM94.7485 319.644C94.1405 319.644 93.5885 319.5 93.0925 319.212C92.5965 318.916 92.2005 318.516 91.9045 318.012C91.6165 317.5 91.4725 316.92 91.4725 316.272C91.4725 315.632 91.6165 315.06 91.9045 314.556C92.1925 314.052 92.5805 313.656 93.0685 313.368C93.5645 313.072 94.1245 312.924 94.7485 312.924C95.3725 312.924 95.9285 313.068 96.4165 313.356C96.9125 313.644 97.3005 314.04 97.5805 314.544C97.8685 315.048 98.0125 315.624 98.0125 316.272C98.0125 316.928 97.8645 317.512 97.5685 318.024C97.2725 318.528 96.8765 318.924 96.3805 319.212C95.8925 319.5 95.3485 319.644 94.7485 319.644ZM94.7485 318.744C95.1805 318.744 95.5685 318.636 95.9125 318.42C96.2645 318.204 96.5405 317.908 96.7405 317.532C96.9485 317.156 97.0525 316.736 97.0525 316.272C97.0525 315.808 96.9485 315.392 96.7405 315.024C96.5405 314.656 96.2645 314.364 95.9125 314.148C95.5685 313.932 95.1805 313.824 94.7485 313.824C94.3165 313.824 93.9245 313.932 93.5725 314.148C93.2285 314.364 92.9525 314.656 92.7445 315.024C92.5365 315.392 92.4325 315.808 92.4325 316.272C92.4325 316.736 92.5365 317.156 92.7445 317.532C92.9525 317.908 93.2285 318.204 93.5725 318.42C93.9245 318.636 94.3165 318.744 94.7485 318.744ZM99.5998 319.5V310.416H100.5V319.5H99.5998ZM104.058 319.5L101.55 313.068H102.558L104.67 318.708H104.346L106.47 313.068H107.49L104.958 319.5H104.058ZM111.352 319.644C110.752 319.644 110.208 319.5 109.72 319.212C109.24 318.916 108.86 318.512 108.58 318C108.3 317.488 108.16 316.908 108.16 316.26C108.16 315.612 108.296 315.04 108.568 314.544C108.84 314.04 109.208 313.644 109.672 313.356C110.144 313.068 110.672 312.924 111.256 312.924C111.72 312.924 112.132 313.012 112.492 313.188C112.86 313.356 113.172 313.588 113.428 313.884C113.684 314.172 113.88 314.5 114.016 314.868C114.152 315.228 114.22 315.6 114.22 315.984C114.22 316.064 114.216 316.156 114.208 316.26C114.2 316.356 114.188 316.456 114.172 316.56H108.736V315.72H113.656L113.224 316.08C113.296 315.64 113.244 315.248 113.068 314.904C112.9 314.552 112.656 314.276 112.336 314.076C112.016 313.868 111.656 313.764 111.256 313.764C110.856 313.764 110.484 313.868 110.14 314.076C109.804 314.284 109.54 314.576 109.348 314.952C109.156 315.32 109.08 315.76 109.12 316.272C109.08 316.784 109.16 317.232 109.36 317.616C109.568 317.992 109.848 318.284 110.2 318.492C110.56 318.7 110.944 318.804 111.352 318.804C111.824 318.804 112.22 318.692 112.54 318.468C112.86 318.244 113.12 317.964 113.32 317.628L114.088 318.036C113.96 318.324 113.764 318.592 113.5 318.84C113.236 319.08 112.92 319.276 112.552 319.428C112.192 319.572 111.792 319.644 111.352 319.644ZM118.711 319.644C118.111 319.644 117.571 319.5 117.091 319.212C116.611 318.916 116.231 318.516 115.951 318.012C115.679 317.5 115.543 316.924 115.543 316.284C115.543 315.636 115.679 315.06 115.951 314.556C116.231 314.052 116.607 313.656 117.079 313.368C117.559 313.072 118.103 312.924 118.711 312.924C119.263 312.924 119.755 313.044 120.187 313.284C120.619 313.524 120.959 313.848 121.207 314.256L121.063 314.508V310.416H121.963V319.5H121.063V318.06L121.207 318.192C120.983 318.656 120.647 319.016 120.199 319.272C119.759 319.52 119.263 319.644 118.711 319.644ZM118.759 318.744C119.191 318.744 119.579 318.636 119.923 318.42C120.275 318.204 120.551 317.912 120.751 317.544C120.959 317.168 121.063 316.748 121.063 316.284C121.063 315.82 120.959 315.404 120.751 315.036C120.551 314.66 120.275 314.364 119.923 314.148C119.579 313.932 119.191 313.824 118.759 313.824C118.335 313.824 117.951 313.932 117.607 314.148C117.263 314.364 116.991 314.656 116.791 315.024C116.599 315.392 116.503 315.812 116.503 316.284C116.503 316.748 116.599 317.168 116.791 317.544C116.991 317.912 117.259 318.204 117.595 318.42C117.939 318.636 118.327 318.744 118.759 318.744Z" fill="#9B9697"/>
<path d="M45.856 352V340.08H48.544L53.04 350.944L52.368 351.136V340.08H54.464V352H51.744L47.328 341.056L47.952 340.88V352H45.856ZM44.576 346.704V345.36H55.744V346.704H44.576ZM62.3449 352V349.376H56.8729V347.552L62.2169 340.08H64.4889V347.552H66.2329V349.376H64.4889V352H62.3449ZM58.4729 348.336L58.0889 347.552H62.3449V341.792L62.9049 341.968L58.4729 348.336ZM72.8136 352V349.376H67.3416V347.552L72.6856 340.08H74.9576V347.552H76.7016V349.376H74.9576V352H72.8136ZM68.9416 348.336L68.5576 347.552H72.8136V341.792L73.3736 341.968L68.9416 348.336ZM78.8824 354.496V353.456C79.2344 353.371 79.517 353.205 79.7304 352.96C79.9544 352.725 80.093 352.405 80.1464 352H79.2024V349.76H81.3144V351.136C81.3144 352.075 81.1064 352.827 80.6904 353.392C80.285 353.957 79.6824 354.325 78.8824 354.496ZM87.7051 352.192C87.0758 352.192 86.4731 352.075 85.8971 351.84C85.3318 351.605 84.8411 351.275 84.4251 350.848C84.0198 350.411 83.7425 349.893 83.5931 349.296L85.4811 348.624C85.6625 349.168 85.9558 349.573 86.3611 349.84C86.7665 350.096 87.2145 350.224 87.7051 350.224C88.1105 350.224 88.4678 350.139 88.7771 349.968C89.0971 349.787 89.3425 349.541 89.5131 349.232C89.6838 348.912 89.7691 348.544 89.7691 348.128C89.7691 347.712 89.6785 347.349 89.4971 347.04C89.3265 346.731 89.0865 346.491 88.7771 346.32C88.4678 346.139 88.1105 346.048 87.7051 346.048C87.2891 346.048 86.9105 346.139 86.5691 346.32C86.2385 346.501 85.9985 346.763 85.8491 347.104L84.0731 346.704L85.0171 340.08H91.5131V341.92H85.8811L86.6971 340.976L86.0251 345.968L85.4011 345.456C85.6998 345.019 86.0625 344.699 86.4891 344.496C86.9265 344.293 87.4545 344.192 88.0731 344.192C88.8625 344.192 89.5451 344.363 90.1211 344.704C90.7078 345.045 91.1611 345.509 91.4811 346.096C91.8011 346.683 91.9611 347.36 91.9611 348.128C91.9611 348.896 91.7745 349.589 91.4011 350.208C91.0278 350.827 90.5211 351.312 89.8811 351.664C89.2411 352.016 88.5158 352.192 87.7051 352.192ZM93.9489 352L98.9089 341.92H93.2929V340.08H101.197V341.92L96.3489 352H93.9489ZM107.398 352.192C106.449 352.192 105.617 351.936 104.902 351.424C104.188 350.912 103.628 350.192 103.222 349.264C102.828 348.336 102.63 347.259 102.63 346.032C102.63 344.795 102.828 343.717 103.222 342.8C103.617 341.883 104.172 341.168 104.886 340.656C105.601 340.144 106.433 339.888 107.382 339.888C108.353 339.888 109.19 340.144 109.894 340.656C110.609 341.168 111.169 341.888 111.574 342.816C111.98 343.733 112.182 344.805 112.182 346.032C112.182 347.259 111.98 348.336 111.574 349.264C111.18 350.181 110.625 350.901 109.91 351.424C109.196 351.936 108.358 352.192 107.398 352.192ZM107.414 350.208C107.958 350.208 108.422 350.043 108.806 349.712C109.19 349.371 109.484 348.891 109.686 348.272C109.9 347.643 110.006 346.896 110.006 346.032C110.006 345.168 109.9 344.427 109.686 343.808C109.484 343.179 109.185 342.699 108.79 342.368C108.406 342.037 107.937 341.872 107.382 341.872C106.849 341.872 106.39 342.037 106.006 342.368C105.622 342.699 105.324 343.179 105.11 343.808C104.908 344.427 104.806 345.168 104.806 346.032C104.806 346.885 104.908 347.627 105.11 348.256C105.324 348.875 105.622 349.355 106.006 349.696C106.401 350.037 106.87 350.208 107.414 350.208Z" fill="#232323"/>
<path d="M240.056 319.5V310.56H243.128C243.712 310.56 244.224 310.676 244.664 310.908C245.104 311.132 245.444 311.452 245.684 311.868C245.932 312.276 246.056 312.752 246.056 313.296C246.056 313.84 245.932 314.316 245.684 314.724C245.444 315.132 245.104 315.452 244.664 315.684C244.232 315.908 243.72 316.02 243.128 316.02H241.016V319.5H240.056ZM241.016 315.12H243.176C243.56 315.12 243.896 315.048 244.184 314.904C244.472 314.752 244.696 314.54 244.856 314.268C245.016 313.988 245.096 313.66 245.096 313.284C245.096 312.908 245.016 312.584 244.856 312.312C244.696 312.04 244.472 311.832 244.184 311.688C243.896 311.536 243.56 311.46 243.176 311.46H241.016V315.12ZM250.329 319.644C249.729 319.644 249.185 319.5 248.697 319.212C248.217 318.916 247.837 318.512 247.557 318C247.277 317.488 247.137 316.908 247.137 316.26C247.137 315.612 247.273 315.04 247.545 314.544C247.817 314.04 248.185 313.644 248.649 313.356C249.121 313.068 249.649 312.924 250.233 312.924C250.697 312.924 251.109 313.012 251.469 313.188C251.837 313.356 252.149 313.588 252.405 313.884C252.661 314.172 252.857 314.5 252.993 314.868C253.129 315.228 253.197 315.6 253.197 315.984C253.197 316.064 253.193 316.156 253.185 316.26C253.177 316.356 253.165 316.456 253.149 316.56H247.713V315.72H252.633L252.201 316.08C252.273 315.64 252.221 315.248 252.045 314.904C251.877 314.552 251.633 314.276 251.313 314.076C250.993 313.868 250.633 313.764 250.233 313.764C249.833 313.764 249.461 313.868 249.117 314.076C248.781 314.284 248.517 314.576 248.325 314.952C248.133 315.32 248.057 315.76 248.097 316.272C248.057 316.784 248.137 317.232 248.337 317.616C248.545 317.992 248.825 318.284 249.177 318.492C249.537 318.7 249.921 318.804 250.329 318.804C250.801 318.804 251.197 318.692 251.517 318.468C251.837 318.244 252.097 317.964 252.297 317.628L253.065 318.036C252.937 318.324 252.741 318.592 252.477 318.84C252.213 319.08 251.897 319.276 251.529 319.428C251.169 319.572 250.769 319.644 250.329 319.644ZM254.783 319.5V313.068H255.683V314.316L255.479 314.268C255.639 313.852 255.899 313.524 256.259 313.284C256.627 313.044 257.051 312.924 257.531 312.924C257.987 312.924 258.395 313.028 258.755 313.236C259.123 313.444 259.411 313.732 259.619 314.1C259.835 314.46 259.943 314.868 259.943 315.324V319.5H259.043V315.672C259.043 315.28 258.971 314.948 258.827 314.676C258.691 314.404 258.495 314.196 258.239 314.052C257.991 313.9 257.703 313.824 257.375 313.824C257.047 313.824 256.755 313.9 256.499 314.052C256.243 314.196 256.043 314.408 255.899 314.688C255.755 314.96 255.683 315.288 255.683 315.672V319.5H254.783ZM264.566 319.644C263.966 319.644 263.426 319.5 262.946 319.212C262.466 318.916 262.086 318.516 261.806 318.012C261.534 317.5 261.398 316.924 261.398 316.284C261.398 315.636 261.534 315.06 261.806 314.556C262.086 314.052 262.462 313.656 262.934 313.368C263.414 313.072 263.958 312.924 264.566 312.924C265.118 312.924 265.61 313.044 266.042 313.284C266.474 313.524 266.814 313.848 267.062 314.256L266.918 314.508V310.416H267.818V319.5H266.918V318.06L267.062 318.192C266.838 318.656 266.502 319.016 266.054 319.272C265.614 319.52 265.118 319.644 264.566 319.644ZM264.614 318.744C265.046 318.744 265.434 318.636 265.778 318.42C266.13 318.204 266.406 317.912 266.606 317.544C266.814 317.168 266.918 316.748 266.918 316.284C266.918 315.82 266.814 315.404 266.606 315.036C266.406 314.66 266.13 314.364 265.778 314.148C265.434 313.932 265.046 313.824 264.614 313.824C264.19 313.824 263.806 313.932 263.462 314.148C263.118 314.364 262.846 314.656 262.646 315.024C262.454 315.392 262.358 315.812 262.358 316.284C262.358 316.748 262.454 317.168 262.646 317.544C262.846 317.912 263.114 318.204 263.45 318.42C263.794 318.636 264.182 318.744 264.614 318.744ZM269.666 319.5V313.068H270.566V319.5H269.666ZM269.666 311.88V310.56H270.566V311.88H269.666ZM272.408 319.5V313.068H273.308V314.316L273.104 314.268C273.264 313.852 273.524 313.524 273.884 313.284C274.252 313.044 274.676 312.924 275.156 312.924C275.612 312.924 276.02 313.028 276.38 313.236C276.748 313.444 277.036 313.732 277.244 314.1C277.46 314.46 277.568 314.868 277.568 315.324V319.5H276.668V315.672C276.668 315.28 276.596 314.948 276.452 314.676C276.316 314.404 276.12 314.196 275.864 314.052C275.616 313.9 275.328 313.824 275 313.824C274.672 313.824 274.38 313.9 274.124 314.052C273.868 314.196 273.668 314.408 273.524 314.688C273.38 314.96 273.308 315.288 273.308 315.672V319.5H272.408ZM282.335 322.14C281.895 322.14 281.487 322.072 281.111 321.936C280.743 321.8 280.423 321.612 280.151 321.372C279.887 321.14 279.683 320.868 279.539 320.556L280.367 320.112C280.495 320.416 280.723 320.68 281.051 320.904C281.379 321.128 281.799 321.24 282.311 321.24C282.703 321.24 283.063 321.164 283.391 321.012C283.719 320.86 283.983 320.636 284.183 320.34C284.383 320.044 284.483 319.68 284.483 319.248V317.82L284.627 317.952C284.403 318.416 284.071 318.776 283.631 319.032C283.191 319.28 282.711 319.404 282.191 319.404C281.591 319.404 281.051 319.26 280.571 318.972C280.091 318.684 279.711 318.296 279.431 317.808C279.159 317.312 279.023 316.764 279.023 316.164C279.023 315.556 279.159 315.008 279.431 314.52C279.711 314.032 280.087 313.644 280.559 313.356C281.039 313.068 281.583 312.924 282.191 312.924C282.711 312.924 283.183 313.044 283.607 313.284C284.039 313.524 284.379 313.848 284.627 314.256L284.483 314.508V313.068H285.383V319.248C285.383 319.8 285.251 320.292 284.987 320.724C284.731 321.164 284.371 321.508 283.907 321.756C283.451 322.012 282.927 322.14 282.335 322.14ZM282.239 318.504C282.655 318.504 283.031 318.4 283.367 318.192C283.703 317.976 283.971 317.692 284.171 317.34C284.379 316.98 284.483 316.588 284.483 316.164C284.483 315.74 284.379 315.352 284.171 315C283.971 314.64 283.703 314.356 283.367 314.148C283.031 313.932 282.655 313.824 282.239 313.824C281.815 313.824 281.431 313.932 281.087 314.148C280.743 314.356 280.471 314.636 280.271 314.988C280.079 315.34 279.983 315.732 279.983 316.164C279.983 316.588 280.079 316.98 280.271 317.34C280.471 317.692 280.739 317.976 281.075 318.192C281.419 318.4 281.807 318.504 282.239 318.504Z" fill="#9B9697"/>
<path d="M311.5 315C312.328 315 313.01 314.326 312.906 313.504C312.576 310.873 311.38 308.41 309.485 306.515C307.235 304.264 304.183 303 301 303C297.817 303 294.765 304.264 292.515 306.515C290.62 308.41 289.424 310.873 289.094 313.504C288.99 314.326 289.672 315 290.5 315C291.328 315 291.987 314.324 292.125 313.507C292.433 311.674 293.304 309.968 294.636 308.636C296.324 306.948 298.613 306 301 306C303.387 306 305.676 306.948 307.364 308.636C308.696 309.968 309.567 311.674 309.875 313.507C310.013 314.324 310.672 315 311.5 315Z" fill="#FF9C33"/>
<path d="M261.294 352V340.08H263.982L268.477 350.944L267.806 351.136V340.08H269.902V352H267.182L262.766 341.056L263.39 340.88V352H261.294ZM260.014 346.704V345.36H271.182V346.704H260.014ZM276.566 352.192C275.756 352.192 275.036 352.021 274.406 351.68C273.788 351.328 273.302 350.859 272.95 350.272C272.598 349.675 272.422 348.997 272.422 348.24C272.422 347.856 272.46 347.472 272.534 347.088C272.62 346.704 272.769 346.293 272.982 345.856C273.206 345.419 273.526 344.933 273.942 344.4L277.27 340.08H279.862L275.814 345.28L275.462 344.896C275.612 344.779 275.766 344.688 275.926 344.624C276.086 344.549 276.246 344.496 276.406 344.464C276.577 344.432 276.753 344.416 276.934 344.416C277.66 344.416 278.305 344.581 278.87 344.912C279.436 345.243 279.878 345.696 280.198 346.272C280.529 346.837 280.694 347.477 280.694 348.192C280.694 348.96 280.518 349.648 280.166 350.256C279.814 350.853 279.324 351.328 278.694 351.68C278.076 352.021 277.366 352.192 276.566 352.192ZM276.566 350.224C276.929 350.224 277.254 350.144 277.542 349.984C277.841 349.813 278.076 349.573 278.246 349.264C278.428 348.955 278.518 348.608 278.518 348.224C278.518 347.819 278.428 347.472 278.246 347.184C278.076 346.885 277.846 346.651 277.558 346.48C277.27 346.309 276.94 346.224 276.566 346.224C276.204 346.224 275.873 346.309 275.574 346.48C275.276 346.651 275.036 346.885 274.854 347.184C274.684 347.472 274.598 347.819 274.598 348.224C274.598 348.608 274.684 348.955 274.854 349.264C275.036 349.573 275.276 349.813 275.574 349.984C275.873 350.144 276.204 350.224 276.566 350.224ZM283.007 354.496V353.456C283.359 353.371 283.642 353.205 283.855 352.96C284.079 352.725 284.218 352.405 284.271 352H283.327V349.76H285.439V351.136C285.439 352.075 285.231 352.827 284.815 353.392C284.41 353.957 283.807 354.325 283.007 354.496ZM291.83 352.192C291.201 352.192 290.598 352.075 290.022 351.84C289.457 351.605 288.966 351.275 288.55 350.848C288.145 350.411 287.867 349.893 287.718 349.296L289.606 348.624C289.787 349.168 290.081 349.573 290.486 349.84C290.891 350.096 291.339 350.224 291.83 350.224C292.235 350.224 292.593 350.139 292.902 349.968C293.222 349.787 293.467 349.541 293.638 349.232C293.809 348.912 293.894 348.544 293.894 348.128C293.894 347.712 293.803 347.349 293.622 347.04C293.451 346.731 293.211 346.491 292.902 346.32C292.593 346.139 292.235 346.048 291.83 346.048C291.414 346.048 291.035 346.139 290.694 346.32C290.363 346.501 290.123 346.763 289.974 347.104L288.198 346.704L289.142 340.08H295.638V341.92H290.006L290.822 340.976L290.15 345.968L289.526 345.456C289.825 345.019 290.187 344.699 290.614 344.496C291.051 344.293 291.579 344.192 292.198 344.192C292.987 344.192 293.67 344.363 294.246 344.704C294.833 345.045 295.286 345.509 295.606 346.096C295.926 346.683 296.086 347.36 296.086 348.128C296.086 348.896 295.899 349.589 295.526 350.208C295.153 350.827 294.646 351.312 294.006 351.664C293.366 352.016 292.641 352.192 291.83 352.192ZM299.69 352V341.936H297.386V340.08H301.866V352H299.69ZM304.879 352L308.927 346.784L309.295 347.168C309.135 347.285 308.98 347.381 308.831 347.456C308.682 347.531 308.522 347.584 308.351 347.616C308.18 347.648 307.999 347.664 307.807 347.664C307.082 347.664 306.436 347.499 305.871 347.168C305.306 346.837 304.858 346.389 304.527 345.824C304.207 345.248 304.047 344.597 304.047 343.872C304.047 343.104 304.223 342.421 304.575 341.824C304.938 341.227 305.428 340.757 306.047 340.416C306.676 340.064 307.391 339.888 308.191 339.888C309.002 339.888 309.716 340.059 310.335 340.4C310.954 340.741 311.439 341.211 311.791 341.808C312.154 342.395 312.335 343.072 312.335 343.84C312.335 344.224 312.292 344.608 312.207 344.992C312.122 345.376 311.967 345.787 311.743 346.224C311.53 346.651 311.22 347.136 310.815 347.68L307.487 352H304.879ZM308.191 345.84C308.564 345.84 308.895 345.76 309.183 345.6C309.482 345.429 309.716 345.195 309.887 344.896C310.058 344.587 310.143 344.24 310.143 343.856C310.143 343.451 310.052 343.099 309.871 342.8C309.7 342.501 309.471 342.267 309.183 342.096C308.895 341.925 308.564 341.84 308.191 341.84C307.828 341.84 307.498 341.925 307.199 342.096C306.9 342.267 306.66 342.501 306.479 342.8C306.308 343.099 306.223 343.451 306.223 343.856C306.223 344.24 306.308 344.587 306.479 344.896C306.66 345.195 306.9 345.429 307.199 345.6C307.498 345.76 307.828 345.84 308.191 345.84Z" fill="#232323"/>
</g>
<defs>
<filter id="filter0_d_2_2996" x="19" y="278" width="319" height="102" filterUnits="userSpaceOnUse" color-interpolation-filters="sRGB">
<feFlood flood-opacity="0" result="BackgroundImageFix"/>
<feColorMatrix in="SourceAlpha" type="matrix" values="0 0 0 0 0 0 0 0 0 0 0 0 0 0 0 0 0 0 127 0" result="hardAlpha"/>
<feMorphology radius="2" operator="dilate" in="SourceAlpha" result="effect1_dropShadow_2_2996"/>
<feOffset/>
<feGaussianBlur stdDeviation="4"/>
<feComposite in2="hardAlpha" operator="out"/>
<feColorMatrix type="matrix" values="0 0 0 0 0.137255 0 0 0 0 0.137255 0 0 0 0 0.137255 0 0 0 0.05 0"/>
<feBlend mode="normal" in2="BackgroundImageFix" result="effect1_dropShadow_2_2996"/>
<feBlend mode="normal" in="SourceGraphic" in2="effect1_dropShadow_2_2996" result="shape"/>
</filter>
</defs>
</svg>
