<svg width="32" height="32" viewBox="0 0 32 32" fill="none" xmlns="http://www.w3.org/2000/svg">
<rect width="32" height="32" rx="16" fill="#5271FF"/>
<path d="M5.008 22V11.57H6.828L10.734 16.876H9.866L13.688 11.57H15.508V22H13.59V13.74L14.332 13.922L10.37 19.2H10.146L6.282 13.922L6.912 13.74V22H5.008ZM22.4041 22.168C21.6574 22.168 20.9668 22.0327 20.3321 21.762C19.7068 21.4913 19.1561 21.1133 18.6801 20.628C18.2134 20.1427 17.8494 19.5733 17.5881 18.92C17.3268 18.2667 17.1961 17.5527 17.1961 16.778C17.1961 16.0033 17.3221 15.2893 17.5741 14.636C17.8354 13.9733 18.1994 13.404 18.6661 12.928C19.1421 12.4427 19.6974 12.0693 20.3321 11.808C20.9668 11.5373 21.6574 11.402 22.4041 11.402C23.1508 11.402 23.8181 11.528 24.4061 11.78C25.0034 12.032 25.5074 12.368 25.9181 12.788C26.3288 13.1987 26.6228 13.6513 26.8001 14.146L25.0921 14.944C24.8961 14.4213 24.5648 13.992 24.0981 13.656C23.6314 13.3107 23.0668 13.138 22.4041 13.138C21.7508 13.138 21.1721 13.292 20.6681 13.6C20.1734 13.908 19.7861 14.3327 19.5061 14.874C19.2354 15.4153 19.1001 16.05 19.1001 16.778C19.1001 17.506 19.2354 18.1453 19.5061 18.696C19.7861 19.2373 20.1734 19.662 20.6681 19.97C21.1721 20.278 21.7508 20.432 22.4041 20.432C23.0668 20.432 23.6314 20.264 24.0981 19.928C24.5648 19.5827 24.8961 19.1487 25.0921 18.626L26.8001 19.424C26.6228 19.9187 26.3288 20.376 25.9181 20.796C25.5074 21.2067 25.0034 21.538 24.4061 21.79C23.8181 22.042 23.1508 22.168 22.4041 22.168Z" fill="white"/>
</svg>
