<svg width="44" height="44" viewBox="0 0 44 44" fill="none" xmlns="http://www.w3.org/2000/svg">
<g filter="url(#filter0_d_2_7945)">
<rect x="2" width="40" height="40" rx="20" fill="white"/>
<rect x="2.5" y="0.5" width="39" height="39" rx="19.5" stroke="#F0F0F0"/>
<path d="M21.2082 22.4583L19.6665 24C19.3415 24.325 18.8248 24.325 18.4915 24.0083C18.3998 23.9166 18.3082 23.8333 18.2165 23.7416C17.3582 22.875 16.5832 21.9666 15.8915 21.0166C15.2082 20.0666 14.6582 19.1166 14.2582 18.175C13.8665 17.225 13.6665 16.3166 13.6665 15.45C13.6665 14.8833 13.7665 14.3416 13.9665 13.8416C14.1665 13.3333 14.4832 12.8666 14.9248 12.45C15.4582 11.925 16.0415 11.6666 16.6582 11.6666C16.8915 11.6666 17.1248 11.7166 17.3332 11.8166C17.5498 11.9166 17.7415 12.0666 17.8915 12.2833L19.8248 15.0083C19.9748 15.2166 20.0832 15.4083 20.1582 15.5916C20.2332 15.7666 20.2748 15.9416 20.2748 16.1C20.2748 16.3 20.2165 16.5 20.0998 16.6916C19.9915 16.8833 19.8332 17.0833 19.6332 17.2833L18.9998 17.9416C18.9082 18.0333 18.8665 18.1416 18.8665 18.275C18.8665 18.3416 18.8748 18.4 18.8915 18.4666C18.9165 18.5333 18.9415 18.5833 18.9582 18.6333C19.1082 18.9083 19.3665 19.2666 19.7332 19.7C20.1082 20.1333 20.5082 20.575 20.9415 21.0166C21.0248 21.1 21.1165 21.1833 21.1998 21.2666C21.5332 21.5916 21.5415 22.125 21.2082 22.4583Z" fill="#5C5959"/>
<path d="M30.3083 25.275C30.3083 25.5083 30.2667 25.75 30.1833 25.9833C30.1583 26.05 30.1333 26.1166 30.1 26.1833C29.9583 26.4833 29.775 26.7666 29.5333 27.0333C29.125 27.4833 28.675 27.8083 28.1667 28.0166C28.1583 28.0166 28.15 28.025 28.1417 28.025C27.65 28.225 27.1167 28.3333 26.5417 28.3333C25.6917 28.3333 24.7833 28.1333 23.825 27.725C22.8667 27.3166 21.9083 26.7666 20.9583 26.075C20.6333 25.8333 20.3083 25.5916 20 25.3333L22.725 22.6083C22.9583 22.7833 23.1667 22.9166 23.3417 23.0083C23.3833 23.025 23.4333 23.05 23.4917 23.075C23.5583 23.1 23.625 23.1083 23.7 23.1083C23.8417 23.1083 23.95 23.0583 24.0417 22.9666L24.675 22.3416C24.8833 22.1333 25.0833 21.975 25.275 21.875C25.4667 21.7583 25.6583 21.7 25.8667 21.7C26.025 21.7 26.1917 21.7333 26.375 21.8083C26.5583 21.8833 26.75 21.9916 26.9583 22.1333L29.7167 24.0916C29.9333 24.2416 30.0833 24.4166 30.175 24.625C30.2583 24.8333 30.3083 25.0416 30.3083 25.275Z" fill="#232323"/>
</g>
<defs>
<filter id="filter0_d_2_7945" x="0" y="0" width="44" height="44" filterUnits="userSpaceOnUse" color-interpolation-filters="sRGB">
<feFlood flood-opacity="0" result="BackgroundImageFix"/>
<feColorMatrix in="SourceAlpha" type="matrix" values="0 0 0 0 0 0 0 0 0 0 0 0 0 0 0 0 0 0 127 0" result="hardAlpha"/>
<feOffset dy="2"/>
<feGaussianBlur stdDeviation="1"/>
<feComposite in2="hardAlpha" operator="out"/>
<feColorMatrix type="matrix" values="0 0 0 0 0.137255 0 0 0 0 0.137255 0 0 0 0 0.137255 0 0 0 0.05 0"/>
<feBlend mode="normal" in2="BackgroundImageFix" result="effect1_dropShadow_2_7945"/>
<feBlend mode="normal" in="SourceGraphic" in2="effect1_dropShadow_2_7945" result="shape"/>
</filter>
</defs>
</svg>
