<svg width="42" height="44" viewBox="0 0 42 44" fill="none" xmlns="http://www.w3.org/2000/svg">
<g filter="url(#filter0_d_2_7942)">
<rect width="40" height="40" rx="20" fill="white"/>
<rect x="0.5" y="0.5" width="39" height="39" rx="19.5" stroke="#F0F0F0"/>
<path d="M24.1665 12.9166H15.8332C13.3332 12.9166 11.6665 14.1666 11.6665 17.0833V22.9166C11.6665 25.8333 13.3332 27.0833 15.8332 27.0833H24.1665C26.6665 27.0833 28.3332 25.8333 28.3332 22.9166V17.0833C28.3332 14.1666 26.6665 12.9166 24.1665 12.9166ZM24.5582 17.9916L21.9498 20.075C21.3998 20.5166 20.6998 20.7333 19.9998 20.7333C19.2998 20.7333 18.5915 20.5166 18.0498 20.075L15.4415 17.9916C15.1748 17.775 15.1332 17.375 15.3415 17.1083C15.5582 16.8416 15.9498 16.7916 16.2165 17.0083L18.8248 19.0916C19.4582 19.6 20.5332 19.6 21.1665 19.0916L23.7748 17.0083C24.0415 16.7916 24.4415 16.8333 24.6498 17.1083C24.8665 17.375 24.8248 17.775 24.5582 17.9916Z" fill="#5C5959"/>
</g>
<defs>
<filter id="filter0_d_2_7942" x="-2" y="0" width="44" height="44" filterUnits="userSpaceOnUse" color-interpolation-filters="sRGB">
<feFlood flood-opacity="0" result="BackgroundImageFix"/>
<feColorMatrix in="SourceAlpha" type="matrix" values="0 0 0 0 0 0 0 0 0 0 0 0 0 0 0 0 0 0 127 0" result="hardAlpha"/>
<feOffset dy="2"/>
<feGaussianBlur stdDeviation="1"/>
<feComposite in2="hardAlpha" operator="out"/>
<feColorMatrix type="matrix" values="0 0 0 0 0.137255 0 0 0 0 0.137255 0 0 0 0 0.137255 0 0 0 0.05 0"/>
<feBlend mode="normal" in2="BackgroundImageFix" result="effect1_dropShadow_2_7942"/>
<feBlend mode="normal" in="SourceGraphic" in2="effect1_dropShadow_2_7942" result="shape"/>
</filter>
</defs>
</svg>
