<svg width="48" height="49" viewBox="0 0 48 49" fill="none" xmlns="http://www.w3.org/2000/svg">
<rect x="0.5" y="1" width="47" height="47" rx="23.5" fill="#F3F5FD"/>
<rect x="0.5" y="1" width="47" height="47" rx="23.5" stroke="#F6F6F6"/>
<path d="M29.37 22.6699L30.71 21.2499C32.13 19.7499 32.77 18.0399 30.56 15.9499C28.35 13.8699 26.68 14.5999 25.26 16.0999L17.05 24.7899C16.74 25.1199 16.44 25.7699 16.38 26.2199L16.01 29.4599C15.88 30.6299 16.72 31.4299 17.88 31.2299L21.1 30.6799C21.55 30.5999 22.18 30.2699 22.49 29.9299L26.44 25.7499" stroke="#5271FF" stroke-width="1.5" stroke-miterlimit="10" stroke-linecap="round" stroke-linejoin="round"/>
<path d="M23.89 17.55C24.32 20.31 26.56 22.42 29.34 22.7" stroke="#5271FF" stroke-width="1.5" stroke-miterlimit="10" stroke-linecap="round" stroke-linejoin="round"/>
<path d="M15 34.5H26" stroke="#5271FF" stroke-width="1.5" stroke-miterlimit="10" stroke-linecap="round" stroke-linejoin="round"/>
<path d="M30 34.5H33" stroke="#5271FF" stroke-width="1.5" stroke-miterlimit="10" stroke-linecap="round" stroke-linejoin="round"/>
</svg>
