<svg width="20" height="20" viewBox="0 0 20 20" fill="none" xmlns="http://www.w3.org/2000/svg">
<path d="M9.99984 18.9583C5.05817 18.9583 1.0415 14.9416 1.0415 9.99996C1.0415 5.05829 5.05817 1.04163 9.99984 1.04163C10.3415 1.04163 10.6248 1.32496 10.6248 1.66663C10.6248 2.00829 10.3415 2.29163 9.99984 2.29163C5.74984 2.29163 2.2915 5.74996 2.2915 9.99996C2.2915 14.25 5.74984 17.7083 9.99984 17.7083C14.2498 17.7083 17.7082 14.25 17.7082 9.99996C17.7082 9.65829 17.9915 9.37496 18.3332 9.37496C18.6748 9.37496 18.9582 9.65829 18.9582 9.99996C18.9582 14.9416 14.9415 18.9583 9.99984 18.9583Z" fill="#5C5959"/>
<path d="M10.8334 9.7917C10.675 9.7917 10.5167 9.73337 10.3917 9.60837C10.15 9.3667 10.15 8.9667 10.3917 8.72503L17.225 1.8917C17.4667 1.65003 17.8667 1.65003 18.1084 1.8917C18.35 2.13337 18.35 2.53337 18.1084 2.77503L11.275 9.60837C11.15 9.73337 10.9917 9.7917 10.8334 9.7917Z" fill="#5C5959"/>
<path d="M18.3331 6.31663C17.9914 6.31663 17.7081 6.03329 17.7081 5.69163V2.29163H14.3081C13.9664 2.29163 13.6831 2.00829 13.6831 1.66663C13.6831 1.32496 13.9664 1.04163 14.3081 1.04163H18.3331C18.6748 1.04163 18.9581 1.32496 18.9581 1.66663V5.69163C18.9581 6.03329 18.6748 6.31663 18.3331 6.31663Z" fill="#5C5959"/>
</svg>
