<svg width="20" height="20" viewBox="0 0 20 20" fill="none" xmlns="http://www.w3.org/2000/svg">
<path d="M9.99984 18.9585C5.05817 18.9585 1.0415 14.9418 1.0415 10.0001C1.0415 5.05848 5.05817 1.04181 9.99984 1.04181C10.3415 1.04181 10.6248 1.32514 10.6248 1.66681C10.6248 2.00848 10.3415 2.29181 9.99984 2.29181C5.74984 2.29181 2.2915 5.75014 2.2915 10.0001C2.2915 14.2501 5.74984 17.7085 9.99984 17.7085C14.2498 17.7085 17.7082 14.2501 17.7082 10.0001C17.7082 9.65848 17.9915 9.37514 18.3332 9.37514C18.6748 9.37514 18.9582 9.65848 18.9582 10.0001C18.9582 14.9418 14.9415 18.9585 9.99984 18.9585Z" fill="white"/>
<path d="M10.8334 9.79176C10.675 9.79176 10.5167 9.73343 10.3917 9.60843C10.15 9.36676 10.15 8.96676 10.3917 8.72509L17.225 1.89176C17.4667 1.65009 17.8667 1.65009 18.1084 1.89176C18.35 2.13343 18.35 2.53343 18.1084 2.77509L11.275 9.60843C11.15 9.73343 10.9917 9.79176 10.8334 9.79176Z" fill="white"/>
<path d="M18.3331 6.31681C17.9914 6.31681 17.7081 6.03348 17.7081 5.69181V2.29181H14.3081C13.9664 2.29181 13.6831 2.00848 13.6831 1.66681C13.6831 1.32514 13.9664 1.04181 14.3081 1.04181H18.3331C18.6748 1.04181 18.9581 1.32514 18.9581 1.66681V5.69181C18.9581 6.03348 18.6748 6.31681 18.3331 6.31681Z" fill="white"/>
</svg>
