<svg width="44" height="44" viewBox="0 0 44 44" fill="none" xmlns="http://www.w3.org/2000/svg">
<g filter="url(#filter0_d_2_2945)">
<rect x="2" width="40" height="40" rx="20" fill="#FAFAFA"/>
<rect x="2.5" y="0.5" width="39" height="39" rx="19.5" stroke="#F0F0F0"/>
<path d="M22 18.7667C21.6583 18.7667 21.375 18.4834 21.375 18.1417V15.3667C21.375 15.025 21.6583 14.7417 22 14.7417C22.3417 14.7417 22.625 15.025 22.625 15.3667V18.1417C22.625 18.4917 22.3417 18.7667 22 18.7667Z" fill="#5C5959"/>
<path d="M22.0167 26.9582C19.8667 26.9582 17.7251 26.6165 15.6834 25.9332C14.9251 25.6832 14.3501 25.1415 14.1001 24.4582C13.8501 23.7749 13.9334 22.9915 14.3417 22.3082L15.4001 20.5415C15.6334 20.1499 15.8417 19.4165 15.8417 18.9582V17.2082C15.8417 13.7999 18.6084 11.0332 22.0167 11.0332C25.4251 11.0332 28.1917 13.7999 28.1917 17.2082V18.9582C28.1917 19.4082 28.4001 20.1499 28.6334 20.5415L29.6917 22.3082C30.0834 22.9582 30.1501 23.7332 29.8917 24.4415C29.6334 25.1499 29.0667 25.6915 28.3501 25.9332C26.3084 26.6249 24.1667 26.9582 22.0167 26.9582ZM22.0167 12.2915C19.3001 12.2915 17.0917 14.4999 17.0917 17.2165V18.9665C17.0917 19.6415 16.8251 20.6165 16.4751 21.1915L15.4167 22.9665C15.2001 23.3249 15.1501 23.7082 15.2751 24.0415C15.4001 24.3749 15.6834 24.6249 16.0834 24.7582C19.9167 26.0332 24.1334 26.0332 27.9667 24.7582C28.3251 24.6415 28.6001 24.3749 28.7251 24.0249C28.8584 23.6749 28.8167 23.2915 28.6251 22.9665L27.5667 21.1999C27.2167 20.6249 26.9501 19.6499 26.9501 18.9749V17.2249C26.9417 14.4999 24.7334 12.2915 22.0167 12.2915Z" fill="#5C5959"/>
<path d="M22.0001 29.0831C21.1084 29.0831 20.2334 28.7164 19.6001 28.0831C18.9668 27.4498 18.6001 26.5748 18.6001 25.6831H19.8501C19.8501 26.2498 20.0834 26.7998 20.4834 27.1998C20.8834 27.5998 21.4334 27.8331 22.0001 27.8331C23.1834 27.8331 24.1501 26.8664 24.1501 25.6831H25.4001C25.4001 27.5581 23.8751 29.0831 22.0001 29.0831Z" fill="#5C5959"/>
<circle cx="29" cy="12" r="5.5" fill="#E51837" stroke="#F4F4F4"/>
</g>
<defs>
<filter id="filter0_d_2_2945" x="0" y="0" width="44" height="44" filterUnits="userSpaceOnUse" color-interpolation-filters="sRGB">
<feFlood flood-opacity="0" result="BackgroundImageFix"/>
<feColorMatrix in="SourceAlpha" type="matrix" values="0 0 0 0 0 0 0 0 0 0 0 0 0 0 0 0 0 0 127 0" result="hardAlpha"/>
<feOffset dy="2"/>
<feGaussianBlur stdDeviation="1"/>
<feComposite in2="hardAlpha" operator="out"/>
<feColorMatrix type="matrix" values="0 0 0 0 0.137255 0 0 0 0 0.137255 0 0 0 0 0.137255 0 0 0 0.05 0"/>
<feBlend mode="normal" in2="BackgroundImageFix" result="effect1_dropShadow_2_2945"/>
<feBlend mode="normal" in="SourceGraphic" in2="effect1_dropShadow_2_2945" result="shape"/>
</filter>
</defs>
</svg>
