<svg width="44" height="44" viewBox="0 0 44 44" fill="none" xmlns="http://www.w3.org/2000/svg">
<g filter="url(#filter0_d_2_3958)">
<rect x="2" width="40" height="40" rx="20" fill="white"/>
<rect x="2.5" y="0.5" width="39" height="39" rx="19.5" stroke="#F0F0F0"/>
<path d="M21.2084 22.4584L19.6667 24.0001C19.3417 24.3251 18.8251 24.3251 18.4917 24.0084C18.4001 23.9167 18.3084 23.8334 18.2167 23.7417C17.3584 22.8751 16.5834 21.9667 15.8917 21.0167C15.2084 20.0667 14.6584 19.1167 14.2584 18.1751C13.8667 17.2251 13.6667 16.3167 13.6667 15.4501C13.6667 14.8834 13.7667 14.3417 13.9667 13.8417C14.1667 13.3334 14.4834 12.8667 14.9251 12.4501C15.4584 11.9251 16.0417 11.6667 16.6584 11.6667C16.8917 11.6667 17.1251 11.7167 17.3334 11.8167C17.5501 11.9167 17.7417 12.0667 17.8917 12.2834L19.8251 15.0084C19.9751 15.2167 20.0834 15.4084 20.1584 15.5917C20.2334 15.7667 20.2751 15.9417 20.2751 16.1001C20.2751 16.3001 20.2167 16.5001 20.1001 16.6917C19.9917 16.8834 19.8334 17.0834 19.6334 17.2834L19.0001 17.9417C18.9084 18.0334 18.8667 18.1417 18.8667 18.2751C18.8667 18.3417 18.8751 18.4001 18.8917 18.4667C18.9167 18.5334 18.9417 18.5834 18.9584 18.6334C19.1084 18.9084 19.3667 19.2667 19.7334 19.7001C20.1084 20.1334 20.5084 20.5751 20.9417 21.0167C21.0251 21.1001 21.1167 21.1834 21.2001 21.2667C21.5334 21.5917 21.5417 22.1251 21.2084 22.4584Z" fill="#5C5959"/>
<path d="M30.3083 25.275C30.3083 25.5083 30.2667 25.75 30.1833 25.9833C30.1583 26.05 30.1333 26.1166 30.1 26.1833C29.9583 26.4833 29.775 26.7666 29.5333 27.0333C29.125 27.4833 28.675 27.8083 28.1667 28.0166C28.1583 28.0166 28.15 28.025 28.1417 28.025C27.65 28.225 27.1167 28.3333 26.5417 28.3333C25.6917 28.3333 24.7833 28.1333 23.825 27.725C22.8667 27.3166 21.9083 26.7666 20.9583 26.075C20.6333 25.8333 20.3083 25.5916 20 25.3333L22.725 22.6083C22.9583 22.7833 23.1667 22.9166 23.3417 23.0083C23.3833 23.025 23.4333 23.05 23.4917 23.075C23.5583 23.1 23.625 23.1083 23.7 23.1083C23.8417 23.1083 23.95 23.0583 24.0417 22.9666L24.675 22.3416C24.8833 22.1333 25.0833 21.975 25.275 21.875C25.4667 21.7583 25.6583 21.7 25.8667 21.7C26.025 21.7 26.1917 21.7333 26.375 21.8083C26.5583 21.8833 26.75 21.9916 26.9583 22.1333L29.7167 24.0916C29.9333 24.2416 30.0833 24.4166 30.175 24.625C30.2583 24.8333 30.3083 25.0416 30.3083 25.275Z" fill="#232323"/>
</g>
<defs>
<filter id="filter0_d_2_3958" x="0" y="0" width="44" height="44" filterUnits="userSpaceOnUse" color-interpolation-filters="sRGB">
<feFlood flood-opacity="0" result="BackgroundImageFix"/>
<feColorMatrix in="SourceAlpha" type="matrix" values="0 0 0 0 0 0 0 0 0 0 0 0 0 0 0 0 0 0 127 0" result="hardAlpha"/>
<feOffset dy="2"/>
<feGaussianBlur stdDeviation="1"/>
<feComposite in2="hardAlpha" operator="out"/>
<feColorMatrix type="matrix" values="0 0 0 0 0.137255 0 0 0 0 0.137255 0 0 0 0 0.137255 0 0 0 0.05 0"/>
<feBlend mode="normal" in2="BackgroundImageFix" result="effect1_dropShadow_2_3958"/>
<feBlend mode="normal" in="SourceGraphic" in2="effect1_dropShadow_2_3958" result="shape"/>
</filter>
</defs>
</svg>
