<svg width="44" height="44" viewBox="0 0 44 44" fill="none" xmlns="http://www.w3.org/2000/svg">
<g filter="url(#filter0_d_2_2942)">
<rect x="2" width="40" height="40" rx="20" fill="#FAFAFA"/>
<rect x="2.5" y="0.5" width="39" height="39" rx="19.5" stroke="#F0F0F0"/>
<path d="M22 23.125C20.275 23.125 18.875 21.725 18.875 20C18.875 18.275 20.275 16.875 22 16.875C23.725 16.875 25.125 18.275 25.125 20C25.125 21.725 23.725 23.125 22 23.125ZM22 18.125C20.9667 18.125 20.125 18.9667 20.125 20C20.125 21.0333 20.9667 21.875 22 21.875C23.0333 21.875 23.875 21.0333 23.875 20C23.875 18.9667 23.0333 18.125 22 18.125Z" fill="#5C5959"/>
<path d="M24.6748 28.4917C24.4998 28.4917 24.3248 28.4667 24.1498 28.4251C23.6332 28.2834 23.1998 27.9584 22.9248 27.5001L22.8248 27.3334C22.3332 26.4834 21.6582 26.4834 21.1665 27.3334L21.0748 27.4917C20.7998 27.9584 20.3665 28.2917 19.8498 28.4251C19.3248 28.5667 18.7832 28.4917 18.3248 28.2167L16.8915 27.3917C16.3832 27.1001 16.0165 26.6251 15.8582 26.0501C15.7082 25.4751 15.7832 24.8834 16.0748 24.3751C16.3165 23.9501 16.3832 23.5667 16.2415 23.3251C16.0998 23.0834 15.7415 22.9417 15.2498 22.9417C14.0332 22.9417 13.0415 21.9501 13.0415 20.7334V19.2667C13.0415 18.0501 14.0332 17.0584 15.2498 17.0584C15.7415 17.0584 16.0998 16.9167 16.2415 16.6751C16.3832 16.4334 16.3248 16.0501 16.0748 15.6251C15.7832 15.1167 15.7082 14.5167 15.8582 13.9501C16.0082 13.3751 16.3748 12.9001 16.8915 12.6084L18.3332 11.7834C19.2748 11.2251 20.5165 11.5501 21.0832 12.5084L21.1832 12.6751C21.6748 13.5251 22.3498 13.5251 22.8415 12.6751L22.9332 12.5167C23.4998 11.5501 24.7415 11.2251 25.6915 11.7917L27.1248 12.6167C27.6332 12.9084 27.9998 13.3834 28.1582 13.9584C28.3082 14.5334 28.2332 15.1251 27.9415 15.6334C27.6998 16.0584 27.6332 16.4417 27.7748 16.6834C27.9165 16.9251 28.2748 17.0667 28.7665 17.0667C29.9832 17.0667 30.9748 18.0584 30.9748 19.2751V20.7417C30.9748 21.9584 29.9832 22.9501 28.7665 22.9501C28.2748 22.9501 27.9165 23.0917 27.7748 23.3334C27.6332 23.5751 27.6915 23.9584 27.9415 24.3834C28.2332 24.8917 28.3165 25.4917 28.1582 26.0584C28.0082 26.6334 27.6415 27.1084 27.1248 27.4001L25.6832 28.2251C25.3665 28.4001 25.0248 28.4917 24.6748 28.4917ZM21.9998 25.4084C22.7415 25.4084 23.4332 25.8751 23.9082 26.7001L23.9998 26.8584C24.0998 27.0334 24.2665 27.1584 24.4665 27.2084C24.6665 27.2584 24.8665 27.2334 25.0332 27.1334L26.4748 26.3001C26.6915 26.1751 26.8582 25.9667 26.9248 25.7167C26.9915 25.4667 26.9582 25.2084 26.8332 24.9917C26.3582 24.1751 26.2998 23.3334 26.6665 22.6917C27.0332 22.0501 27.7915 21.6834 28.7415 21.6834C29.2748 21.6834 29.6998 21.2584 29.6998 20.7251V19.2584C29.6998 18.7334 29.2748 18.3001 28.7415 18.3001C27.7915 18.3001 27.0332 17.9334 26.6665 17.2917C26.2998 16.6501 26.3582 15.8084 26.8332 14.9917C26.9582 14.7751 26.9915 14.5167 26.9248 14.2667C26.8582 14.0167 26.6998 13.8167 26.4832 13.6834L25.0415 12.8584C24.6832 12.6417 24.2082 12.7667 23.9915 13.1334L23.8998 13.2917C23.4248 14.1167 22.7332 14.5834 21.9915 14.5834C21.2498 14.5834 20.5582 14.1167 20.0832 13.2917L19.9915 13.1251C19.7832 12.7751 19.3165 12.6501 18.9582 12.8584L17.5165 13.6917C17.2998 13.8167 17.1332 14.0251 17.0665 14.2751C16.9998 14.5251 17.0332 14.7834 17.1582 15.0001C17.6332 15.8167 17.6915 16.6584 17.3248 17.3001C16.9582 17.9417 16.1998 18.3084 15.2498 18.3084C14.7165 18.3084 14.2915 18.7334 14.2915 19.2667V20.7334C14.2915 21.2584 14.7165 21.6917 15.2498 21.6917C16.1998 21.6917 16.9582 22.0584 17.3248 22.7001C17.6915 23.3417 17.6332 24.1834 17.1582 25.0001C17.0332 25.2167 16.9998 25.4751 17.0665 25.7251C17.1332 25.9751 17.2915 26.1751 17.5082 26.3084L18.9498 27.1334C19.1248 27.2417 19.3332 27.2667 19.5248 27.2167C19.7248 27.1667 19.8915 27.0334 19.9998 26.8584L20.0915 26.7001C20.5665 25.8834 21.2582 25.4084 21.9998 25.4084Z" fill="#5C5959"/>
</g>
<defs>
<filter id="filter0_d_2_2942" x="0" y="0" width="44" height="44" filterUnits="userSpaceOnUse" color-interpolation-filters="sRGB">
<feFlood flood-opacity="0" result="BackgroundImageFix"/>
<feColorMatrix in="SourceAlpha" type="matrix" values="0 0 0 0 0 0 0 0 0 0 0 0 0 0 0 0 0 0 127 0" result="hardAlpha"/>
<feOffset dy="2"/>
<feGaussianBlur stdDeviation="1"/>
<feComposite in2="hardAlpha" operator="out"/>
<feColorMatrix type="matrix" values="0 0 0 0 0.137255 0 0 0 0 0.137255 0 0 0 0 0.137255 0 0 0 0.05 0"/>
<feBlend mode="normal" in2="BackgroundImageFix" result="effect1_dropShadow_2_2942"/>
<feBlend mode="normal" in="SourceGraphic" in2="effect1_dropShadow_2_2942" result="shape"/>
</filter>
</defs>
</svg>
