<svg width="30" height="30" viewBox="0 0 30 30" fill="none" xmlns="http://www.w3.org/2000/svg">
<path d="M21.25 26.5626H8.75C4.1875 26.5626 1.5625 23.9376 1.5625 19.3751V10.6251C1.5625 6.06262 4.1875 3.43762 8.75 3.43762H21.25C25.8125 3.43762 28.4375 6.06262 28.4375 10.6251V19.3751C28.4375 23.9376 25.8125 26.5626 21.25 26.5626ZM8.75 5.31262C5.175 5.31262 3.4375 7.05012 3.4375 10.6251V19.3751C3.4375 22.9501 5.175 24.6876 8.75 24.6876H21.25C24.825 24.6876 26.5625 22.9501 26.5625 19.3751V10.6251C26.5625 7.05012 24.825 5.31262 21.25 5.31262H8.75Z" fill="#5C5959"/>
<path d="M14.9995 16.0876C13.9495 16.0876 12.887 15.7626 12.0745 15.1001L8.16198 11.9751C7.76198 11.6501 7.68698 11.0626 8.01198 10.6626C8.33698 10.2626 8.92449 10.1876 9.32449 10.5126L13.237 13.6376C14.187 14.4001 15.7995 14.4001 16.7495 13.6376L20.662 10.5126C21.062 10.1876 21.662 10.2501 21.9745 10.6626C22.2995 11.0626 22.237 11.6626 21.8245 11.9751L17.912 15.1001C17.112 15.7626 16.0495 16.0876 14.9995 16.0876Z" fill="#5C5959"/>
</svg>
