<svg width="44" height="45" viewBox="0 0 44 45" fill="none" xmlns="http://www.w3.org/2000/svg">
<path d="M26.7729 18.7877L18.2876 27.273C17.9977 27.5629 17.5169 27.5629 17.227 27.273C16.9371 26.9831 16.9371 26.5023 17.227 26.2123L25.7123 17.7271C26.0022 17.4372 26.483 17.4372 26.7729 17.7271C27.0628 18.017 27.0628 18.4978 26.7729 18.7877Z" fill="#9B9697"/>
<path d="M26.7729 27.2729C26.483 27.5628 26.0022 27.5628 25.7123 27.2729L17.227 18.7877C16.9371 18.4977 16.9371 18.0169 17.227 17.727C17.5169 17.4371 17.9977 17.4371 18.2876 17.727L26.7729 26.2123C27.0628 26.5022 27.0628 26.983 26.7729 27.2729Z" fill="#9B9697"/>
</svg>
